<svg xmlns="http://www.w3.org/2000/svg" xmlns:xlink="http://www.w3.org/1999/xlink" width="500" zoomAndPan="magnify" viewBox="0 0 375 374.999991" height="500" preserveAspectRatio="xMidYMid meet" version="1.2">
  <defs>
    <filter id="glow">
      <fegaussianblur stdDeviation="3" result="coloredBlur"/>
      <femerge>
        <femergenode in="coloredBlur"/>
        <femergenode in="SourceGraphic"/>
      </femerge>
    </filter>
    <clipPath id="1b839bc14f">
      <path d="M 102 125.851562 L 265 125.851562 L 265 236.101562 L 102 236.101562 Z M 102 125.851562 "/>
    </clipPath>
  </defs>
  <g id="3f84e3649c">
    <g clip-rule="nonzero" clip-path="url(#1b839bc14f)">
      <path
        style="stroke:rgba(255,255,255,0.8);stroke-width:1.5;fill-rule:nonzero;fill:#ffffff;fill-opacity:1;filter:url(#glow);"
        d="M 195.382812 198.261719 C 191.753906 199.996094 187.75 200.90625 183.734375 200.953125 C 179.949219 200.992188 176.558594 200.007812 173.003906 198.816406 C 171.820312 198.421875 170.710938 197.789062 169.601562 197.234375 C 167.984375 196.429688 166.6875 195.160156 165.238281 194.117188 C 162.070312 191.835938 159.355469 188.269531 157.964844 184.640625 C 157.230469 182.730469 156.300781 180.765625 156.011719 178.75 C 155.621094 176.046875 155.125 173.492188 155.332031 170.742188 C 155.511719 168.308594 156.101562 165.914062 156.925781 163.621094 C 156.964844 163.515625 157.117188 163.527344 157.144531 163.636719 C 157.371094 164.621094 158.34375 166.285156 158.597656 166.808594 C 159.246094 168.15625 160 169.453125 160.855469 170.679688 C 162.019531 172.347656 163.148438 173.808594 164.492188 175.183594 C 165.074219 175.777344 165.691406 176.351562 166.371094 176.921875 C 166.921875 177.382812 167.46875 177.84375 168.042969 178.273438 C 169.917969 179.691406 172.058594 180.726562 174.300781 181.429688 C 175.429688 181.789062 176.589844 181.953125 177.734375 182.25 C 180.371094 182.929688 183.011719 182.792969 185.753906 182.601562 C 188.925781 182.386719 192.074219 181.714844 195.03125 180.542969 C 198.078125 179.34375 200.28125 177.527344 202.714844 175.394531 C 203.417969 174.78125 204.152344 174.113281 204.691406 173.375 C 205.667969 172.042969 206.839844 170.902344 207.660156 169.453125 C 208.046875 168.765625 208.46875 168.082031 208.816406 167.367188 C 209.007812 166.980469 209.75 165.78125 209.964844 165.050781 C 209.992188 164.960938 210.121094 164.960938 210.148438 165.050781 C 210.457031 166.03125 210.761719 167.023438 210.851562 168.046875 C 211.246094 172.453125 210.746094 179.507812 208.453125 184.890625 C 207.957031 186.058594 205.488281 190.351562 204.605469 191.226562 C 203.542969 192.277344 202.4375 193.460938 201.285156 194.433594 C 199.492188 195.957031 197.503906 197.25 195.382812 198.261719 Z M 209.242188 163.25 C 209.359375 163.386719 209.585938 163.472656 209.734375 163.226562 C 209.875 162.992188 209.664062 162.667969 209.402344 162.667969 C 209.066406 162.671875 209.070312 163.050781 209.242188 163.25 Z M 208.042969 160.195312 C 207.996094 160.261719 207.976562 160.359375 207.996094 160.441406 C 208.027344 160.5625 208.125 160.703125 208.257812 160.722656 C 208.578125 160.757812 208.726562 160.339844 208.480469 160.144531 C 208.347656 160.035156 208.140625 160.050781 208.042969 160.195312 Z M 206.628906 157.761719 C 206.589844 157.835938 206.582031 157.933594 206.605469 158.011719 C 206.644531 158.128906 206.757812 158.261719 206.898438 158.261719 C 207.222656 158.261719 207.320312 157.839844 207.058594 157.667969 C 206.914062 157.574219 206.714844 157.609375 206.628906 157.761719 Z M 204.96875 155.492188 C 204.9375 155.566406 204.941406 155.667969 204.976562 155.742188 C 205.03125 155.851562 205.152344 155.976562 205.292969 155.964844 C 205.609375 155.933594 205.675781 155.496094 205.386719 155.355469 C 205.234375 155.273438 205.042969 155.332031 204.96875 155.492188 Z M 203.09375 153.398438 C 203.066406 153.476562 203.078125 153.578125 203.121094 153.648438 C 203.183594 153.753906 203.320312 153.863281 203.460938 153.832031 C 203.777344 153.769531 203.789062 153.335938 203.496094 153.21875 C 203.335938 153.15625 203.148438 153.226562 203.09375 153.398438 Z M 200.996094 151.523438 C 200.980469 151.605469 201 151.707031 201.046875 151.769531 C 201.121094 151.871094 201.265625 151.964844 201.402344 151.921875 C 201.710938 151.828125 201.675781 151.398438 201.378906 151.304688 C 201.210938 151.257812 201.03125 151.347656 200.996094 151.523438 Z M 198.742188 149.84375 C 198.730469 149.925781 198.765625 150.023438 198.820312 150.085938 C 198.902344 150.179688 199.054688 150.257812 199.1875 150.203125 C 199.484375 150.074219 199.410156 149.648438 199.101562 149.59375 C 198.929688 149.558594 198.761719 149.667969 198.742188 149.84375 Z M 196.804688 148.710938 C 197.089844 148.554688 196.972656 148.140625 196.660156 148.109375 C 196.492188 148.097656 196.332031 148.222656 196.328125 148.398438 C 196.328125 148.480469 196.371094 148.574219 196.429688 148.628906 C 196.523438 148.71875 196.683594 148.78125 196.804688 148.710938 Z M 191.726562 172.351562 C 191.207031 171.816406 190.664062 171.304688 190.125 170.792969 C 189.871094 170.554688 189.484375 170.9375 189.742188 171.179688 C 190.316406 171.71875 190.890625 172.265625 191.441406 172.835938 C 190.527344 172.816406 189.617188 172.789062 188.71875 172.789062 C 188.367188 172.789062 188.367188 173.332031 188.71875 173.332031 C 189.574219 173.332031 190.433594 173.355469 191.292969 173.375 C 190.792969 173.925781 190.292969 174.476562 189.777344 175.011719 C 189.535156 175.265625 189.921875 175.648438 190.160156 175.398438 C 190.710938 174.828125 191.238281 174.242188 191.773438 173.660156 C 191.808594 174.59375 191.84375 175.527344 191.84375 176.457031 C 191.84375 176.804688 192.386719 176.804688 192.386719 176.457031 C 192.386719 175.574219 192.351562 174.691406 192.320312 173.804688 C 192.8125 174.394531 193.292969 175.066406 193.980469 175.4375 C 194.289062 175.605469 194.5625 175.136719 194.257812 174.96875 C 193.609375 174.617188 193.15625 173.96875 192.6875 173.398438 C 193.574219 173.414062 194.457031 173.414062 195.335938 173.367188 C 195.683594 173.347656 195.683594 172.804688 195.335938 172.824219 C 194.402344 172.875 193.457031 172.875 192.511719 172.855469 C 193.105469 172.210938 193.710938 171.570312 194.347656 170.96875 C 194.601562 170.726562 194.21875 170.339844 193.964844 170.582031 C 193.378906 171.140625 192.824219 171.726562 192.273438 172.316406 C 192.242188 171.195312 192.234375 170.066406 192.320312 168.949219 C 192.347656 168.601562 191.804688 168.601562 191.777344 168.949219 C 191.683594 170.078125 191.695312 171.214844 191.726562 172.351562 Z"
      />
    </g>
  </g>
</svg>