<svg xmlns="http://www.w3.org/2000/svg" xmlns:xlink="http://www.w3.org/1999/xlink" width="500" zoomAndPan="magnify" viewBox="0 0 375 374.999991" height="500" preserveAspectRatio="xMidYMid meet" version="1.2"><defs><clipPath id="197555cfb8"><path d="M 66 105.222656 L 308.851562 105.222656 L 308.851562 269.472656 L 66 269.472656 Z M 66 105.222656 "/></clipPath></defs><g id="c2dc4024da"><g clip-rule="nonzero" clip-path="url(#197555cfb8)"><path style=" stroke:none;fill-rule:nonzero;fill:#0b0b0c;fill-opacity:1;" d="M 205.140625 213.097656 C 199.738281 215.683594 193.769531 217.035156 187.785156 217.105469 C 182.148438 217.167969 177.09375 215.695312 171.800781 213.925781 C 170.035156 213.335938 168.386719 212.390625 166.730469 211.570312 C 164.320312 210.371094 162.390625 208.476562 160.226562 206.921875 C 155.511719 203.523438 151.464844 198.210938 149.394531 192.808594 C 148.300781 189.957031 146.914062 187.03125 146.484375 184.03125 C 145.902344 180 145.167969 176.199219 145.472656 172.101562 C 145.742188 168.476562 146.617188 164.90625 147.847656 161.488281 C 147.90625 161.332031 148.132812 161.351562 148.171875 161.515625 C 148.511719 162.980469 149.960938 165.457031 150.339844 166.242188 C 151.300781 168.25 152.429688 170.179688 153.703125 172.007812 C 155.433594 174.492188 157.117188 176.667969 159.121094 178.714844 C 159.988281 179.597656 160.90625 180.457031 161.921875 181.308594 C 162.738281 181.996094 163.558594 182.679688 164.410156 183.320312 C 167.203125 185.429688 170.394531 186.972656 173.730469 188.023438 C 175.414062 188.554688 177.140625 188.800781 178.84375 189.242188 C 182.773438 190.257812 186.710938 190.050781 190.796875 189.769531 C 195.523438 189.445312 200.210938 188.445312 204.617188 186.703125 C 209.15625 184.910156 212.4375 182.207031 216.066406 179.027344 C 217.109375 178.113281 218.203125 177.121094 219.007812 176.023438 C 220.464844 174.035156 222.210938 172.335938 223.429688 170.179688 C 224.007812 169.152344 224.632812 168.136719 225.15625 167.074219 C 225.441406 166.492188 226.542969 164.707031 226.863281 163.617188 C 226.902344 163.484375 227.097656 163.484375 227.140625 163.617188 C 227.597656 165.082031 228.050781 166.5625 228.183594 168.085938 C 228.773438 174.648438 228.03125 185.160156 224.613281 193.179688 C 223.875 194.917969 220.195312 201.3125 218.882812 202.613281 C 217.300781 204.183594 215.648438 205.949219 213.9375 207.394531 C 211.261719 209.664062 208.300781 211.589844 205.140625 213.097656 Z M 225.789062 160.9375 C 225.964844 161.140625 226.296875 161.269531 226.519531 160.898438 C 226.730469 160.550781 226.417969 160.066406 226.027344 160.074219 C 225.523438 160.078125 225.535156 160.640625 225.789062 160.9375 Z M 224 156.386719 C 223.933594 156.488281 223.902344 156.632812 223.933594 156.753906 C 223.980469 156.933594 224.121094 157.144531 224.324219 157.167969 C 224.796875 157.222656 225.019531 156.605469 224.652344 156.3125 C 224.453125 156.148438 224.148438 156.167969 224 156.386719 Z M 221.894531 152.761719 C 221.835938 152.867188 221.824219 153.019531 221.863281 153.136719 C 221.917969 153.308594 222.089844 153.507812 222.296875 153.507812 C 222.78125 153.507812 222.925781 152.878906 222.535156 152.621094 C 222.320312 152.480469 222.019531 152.535156 221.894531 152.761719 Z M 219.421875 149.378906 C 219.375 149.492188 219.378906 149.640625 219.433594 149.753906 C 219.515625 149.917969 219.695312 150.101562 219.902344 150.082031 C 220.375 150.039062 220.472656 149.386719 220.046875 149.175781 C 219.820312 149.054688 219.53125 149.136719 219.421875 149.378906 Z M 216.625 146.261719 C 216.589844 146.375 216.605469 146.527344 216.671875 146.632812 C 216.761719 146.792969 216.964844 146.953125 217.171875 146.90625 C 217.648438 146.8125 217.660156 146.167969 217.226562 145.992188 C 216.988281 145.898438 216.707031 146.003906 216.625 146.261719 Z M 213.5 143.46875 C 213.476562 143.589844 213.511719 143.738281 213.578125 143.835938 C 213.691406 143.984375 213.902344 144.125 214.105469 144.0625 C 214.566406 143.921875 214.515625 143.28125 214.070312 143.144531 C 213.824219 143.070312 213.554688 143.207031 213.5 143.46875 Z M 210.144531 140.96875 C 210.128906 141.085938 210.175781 141.234375 210.257812 141.324219 C 210.386719 141.464844 210.613281 141.582031 210.804688 141.5 C 211.25 141.308594 211.140625 140.675781 210.679688 140.589844 C 210.425781 140.542969 210.171875 140.699219 210.144531 140.96875 Z M 207.261719 139.277344 C 207.679688 139.046875 207.507812 138.425781 207.042969 138.382812 C 206.789062 138.363281 206.554688 138.546875 206.546875 138.8125 C 206.546875 138.933594 206.613281 139.074219 206.699219 139.15625 C 206.839844 139.289062 207.074219 139.378906 207.261719 139.277344 Z M 202.753906 137.042969 C 202.765625 137.164062 202.84375 137.300781 202.941406 137.371094 C 203.089844 137.484375 203.335938 137.550781 203.511719 137.433594 C 203.90625 137.164062 203.671875 136.558594 203.199219 136.570312 C 202.949219 136.570312 202.730469 136.78125 202.753906 137.042969 Z M 199.019531 135.972656 C 199.179688 136.070312 199.433594 136.113281 199.589844 135.980469 C 199.960938 135.667969 199.660156 135.09375 199.199219 135.148438 C 198.949219 135.175781 198.753906 135.402344 198.808594 135.664062 C 198.828125 135.785156 198.914062 135.910156 199.019531 135.972656 Z M 194.976562 134.976562 C 195.144531 135.058594 195.402344 135.078125 195.546875 134.929688 C 195.878906 134.585938 195.527344 134.039062 195.074219 134.136719 C 194.824219 134.1875 194.65625 134.433594 194.734375 134.691406 C 194.761719 134.808594 194.863281 134.925781 194.976562 134.976562 Z M 190.847656 134.390625 C 191.023438 134.453125 191.28125 134.449219 191.410156 134.289062 C 191.707031 133.914062 191.300781 133.40625 190.859375 133.546875 C 190.617188 133.621094 190.476562 133.882812 190.578125 134.128906 C 190.625 134.242188 190.738281 134.347656 190.847656 134.390625 Z M 186.386719 133.992188 C 186.445312 134.097656 186.566406 134.195312 186.6875 134.222656 C 186.867188 134.269531 187.125 134.242188 187.234375 134.066406 C 187.492188 133.667969 187.035156 133.195312 186.609375 133.378906 C 186.378906 133.476562 186.261719 133.753906 186.386719 133.992188 Z M 182.53125 134.472656 C 182.714844 134.503906 182.96875 134.449219 183.058594 134.265625 C 183.277344 133.839844 182.773438 133.417969 182.367188 133.640625 C 182.144531 133.761719 182.058594 134.046875 182.207031 134.269531 C 182.277344 134.371094 182.410156 134.453125 182.53125 134.472656 Z M 178.414062 135.136719 C 178.605469 135.152344 178.84375 135.074219 178.921875 134.878906 C 179.097656 134.433594 178.554688 134.066406 178.171875 134.324219 C 177.964844 134.464844 177.90625 134.757812 178.078125 134.960938 C 178.152344 135.058594 178.292969 135.128906 178.414062 135.136719 Z M 174.390625 136.210938 C 174.578125 136.207031 174.816406 136.105469 174.867188 135.90625 C 174.996094 135.453125 174.417969 135.132812 174.066406 135.425781 C 173.871094 135.589844 173.851562 135.910156 174.042969 136.085938 C 174.125 136.167969 174.269531 136.210938 174.390625 136.210938 Z M 170.09375 136.945312 C 169.929688 137.144531 169.933594 137.453125 170.136719 137.609375 C 170.230469 137.683594 170.378906 137.710938 170.496094 137.6875 C 170.679688 137.664062 170.90625 137.542969 170.941406 137.339844 C 171.023438 136.878906 170.414062 136.609375 170.09375 136.945312 Z M 166.296875 138.871094 C 166.148438 139.085938 166.183594 139.390625 166.40625 139.53125 C 166.507812 139.59375 166.660156 139.605469 166.769531 139.570312 C 166.9375 139.5 167.160156 139.375 167.171875 139.167969 C 167.210938 138.703125 166.566406 138.480469 166.296875 138.871094 Z M 163.257812 141.808594 C 163.421875 141.726562 163.621094 141.566406 163.609375 141.363281 C 163.605469 140.902344 162.933594 140.734375 162.714844 141.164062 C 162.589844 141.394531 162.65625 141.691406 162.894531 141.808594 C 163 141.863281 163.152344 141.863281 163.257812 141.808594 Z M 159.386719 143.8125 C 159.285156 144.046875 159.382812 144.34375 159.628906 144.429688 C 159.738281 144.472656 159.890625 144.457031 159.992188 144.398438 C 160.144531 144.300781 160.324219 144.117188 160.296875 143.914062 C 160.242188 143.457031 159.554688 143.355469 159.386719 143.8125 Z M 156.328125 146.769531 C 156.246094 147.007812 156.367188 147.285156 156.625 147.351562 C 156.738281 147.382812 156.890625 147.359375 156.992188 147.289062 C 157.140625 147.183594 157.304688 146.992188 157.257812 146.789062 C 157.152344 146.332031 156.472656 146.316406 156.328125 146.769531 Z M 153.589844 150.019531 C 153.53125 150.269531 153.683594 150.53125 153.945312 150.574219 C 154.066406 150.59375 154.210938 150.550781 154.300781 150.480469 C 154.441406 150.359375 154.578125 150.140625 154.503906 149.941406 C 154.34375 149.488281 153.691406 149.558594 153.589844 150.019531 Z M 151.191406 153.53125 C 151.15625 153.78125 151.332031 154.03125 151.597656 154.050781 C 151.71875 154.058594 151.859375 154 151.945312 153.914062 C 152.074219 153.78125 152.183594 153.546875 152.09375 153.363281 C 151.890625 152.925781 151.25 153.0625 151.191406 153.53125 Z M 149.164062 157.265625 C 149.152344 157.523438 149.355469 157.75 149.617188 157.742188 C 149.738281 157.734375 149.875 157.667969 149.953125 157.570312 C 150.066406 157.425781 150.144531 157.179688 150.039062 157.003906 C 149.792969 156.59375 149.171875 156.796875 149.164062 157.265625 Z M 223.550781 145.066406 C 223.660156 145.203125 223.894531 145.203125 224.0625 145.066406 L 229.898438 140.300781 C 231.828125 138.691406 233.8125 137.15625 235.679688 135.472656 C 235.835938 135.335938 235.847656 135.089844 235.714844 134.90625 C 235.566406 134.714844 235.3125 134.671875 235.136719 134.808594 C 233.152344 136.351562 231.285156 138.03125 229.371094 139.652344 L 223.652344 144.558594 C 223.480469 144.703125 223.4375 144.929688 223.550781 145.066406 Z M 235.195312 147.386719 C 235.34375 147.285156 235.402344 147.097656 235.320312 146.9375 C 235.234375 146.769531 235.019531 146.703125 234.84375 146.796875 C 233.6875 147.402344 232.566406 148.074219 231.445312 148.742188 C 230.332031 149.425781 229.226562 150.105469 228.136719 150.828125 C 227.988281 150.929688 227.917969 151.109375 227.988281 151.238281 C 228.058594 151.382812 228.261719 151.421875 228.441406 151.332031 C 229.597656 150.71875 230.730469 150.078125 231.863281 149.425781 C 232.984375 148.769531 234.113281 148.109375 235.195312 147.386719 Z M 231.800781 158.292969 L 235.882812 156.730469 C 237.242188 156.207031 238.625 155.746094 239.964844 155.160156 C 240.160156 155.074219 240.261719 154.855469 240.1875 154.660156 C 240.109375 154.445312 239.875 154.335938 239.652344 154.40625 C 238.273438 154.886719 236.941406 155.484375 235.585938 156.027344 L 231.527344 157.652344 C 231.308594 157.742188 231.195312 157.949219 231.265625 158.121094 C 231.347656 158.300781 231.582031 158.375 231.800781 158.292969 Z M 237.746094 145.929688 C 238.644531 145.496094 239.496094 144.988281 240.351562 144.480469 L 242.925781 142.964844 C 244.644531 141.957031 246.355469 140.949219 248.054688 139.914062 C 248.234375 139.800781 248.277344 139.539062 248.148438 139.316406 C 248.015625 139.089844 247.753906 138.992188 247.570312 139.097656 C 245.847656 140.097656 244.136719 141.113281 242.429688 142.132812 L 239.863281 143.660156 C 239.007812 144.167969 238.152344 144.675781 237.339844 145.257812 C 237.183594 145.371094 237.125 145.578125 237.214844 145.75 C 237.316406 145.945312 237.550781 146.023438 237.746094 145.929688 Z M 240.710938 161.507812 L 233.429688 163.433594 C 233.214844 163.492188 233.082031 163.671875 233.125 163.847656 C 233.167969 164.019531 233.375 164.117188 233.589844 164.070312 L 240.917969 162.324219 C 243.355469 161.722656 245.816406 161.195312 248.222656 160.5 C 248.421875 160.441406 248.542969 160.226562 248.496094 160.003906 C 248.445312 159.773438 248.230469 159.617188 248.015625 159.667969 C 245.558594 160.1875 243.144531 160.890625 240.710938 161.507812 Z M 234.8125 171.636719 C 236.121094 171.59375 237.421875 171.5 238.722656 171.410156 C 240.023438 171.300781 241.320312 171.195312 242.613281 171.015625 C 242.792969 170.992188 242.921875 170.84375 242.917969 170.667969 C 242.914062 170.476562 242.742188 170.324219 242.542969 170.335938 C 241.238281 170.378906 239.941406 170.492188 238.640625 170.609375 C 237.34375 170.742188 236.046875 170.871094 234.753906 171.050781 C 234.574219 171.074219 234.441406 171.207031 234.445312 171.359375 C 234.449219 171.515625 234.613281 171.640625 234.8125 171.636719 Z M 234.792969 179.382812 L 239.152344 179.738281 C 240.605469 179.855469 242.050781 180.042969 243.511719 180.09375 C 243.726562 180.097656 243.914062 179.949219 243.949219 179.738281 C 243.980469 179.515625 243.816406 179.308594 243.589844 179.285156 C 242.144531 179.117188 240.683594 179.085938 239.226562 178.988281 L 234.863281 178.699219 C 234.628906 178.683594 234.425781 178.824219 234.410156 179.007812 C 234.390625 179.191406 234.566406 179.363281 234.792969 179.382812 Z M 257.355469 168.925781 C 255.371094 169.070312 253.386719 169.246094 251.402344 169.425781 L 248.425781 169.691406 C 247.4375 169.777344 246.445312 169.859375 245.460938 170.03125 C 245.273438 170.0625 245.132812 170.226562 245.136719 170.421875 C 245.144531 170.632812 245.320312 170.808594 245.539062 170.808594 C 246.539062 170.804688 247.527344 170.714844 248.519531 170.632812 L 251.496094 170.386719 C 253.480469 170.222656 255.460938 170.058594 257.441406 169.863281 C 257.648438 169.847656 257.800781 169.628906 257.78125 169.371094 C 257.761719 169.109375 257.566406 168.910156 257.355469 168.925781 Z M 249.128906 188.152344 C 249.183594 187.921875 249.050781 187.6875 248.839844 187.636719 C 246.394531 187.046875 243.917969 186.632812 241.457031 186.144531 L 234.058594 184.734375 C 233.84375 184.695312 233.640625 184.800781 233.609375 184.972656 C 233.574219 185.148438 233.722656 185.328125 233.9375 185.375 L 241.300781 186.96875 C 243.757812 187.480469 246.203125 188.066406 248.679688 188.480469 C 248.878906 188.511719 249.074219 188.371094 249.128906 188.152344 Z M 239.304688 194.886719 C 238.109375 194.359375 236.882812 193.902344 235.664062 193.445312 C 234.441406 193 233.210938 192.5625 231.972656 192.160156 C 231.800781 192.105469 231.613281 192.160156 231.546875 192.292969 C 231.476562 192.441406 231.566406 192.625 231.75 192.707031 C 232.945312 193.226562 234.15625 193.710938 235.371094 194.191406 C 236.589844 194.660156 237.804688 195.125 239.050781 195.527344 C 239.222656 195.578125 239.410156 195.507812 239.488281 195.347656 C 239.570312 195.171875 239.488281 194.96875 239.304688 194.886719 Z M 228.195312 199.148438 C 228.097656 199.308594 228.183594 199.539062 228.382812 199.660156 L 232.152344 201.878906 C 233.410156 202.613281 234.632812 203.414062 235.925781 204.09375 C 236.113281 204.191406 236.351562 204.136719 236.46875 203.960938 C 236.59375 203.769531 236.535156 203.515625 236.335938 203.386719 C 235.101562 202.609375 233.800781 201.945312 232.539062 201.222656 L 228.738281 199.0625 C 228.535156 198.953125 228.292969 198.992188 228.195312 199.148438 Z M 253.261719 200.039062 C 251.40625 199.308594 249.546875 198.609375 247.683594 197.910156 L 244.886719 196.863281 C 243.953125 196.511719 243.023438 196.15625 242.066406 195.882812 C 241.882812 195.832031 241.679688 195.917969 241.589844 196.09375 C 241.496094 196.285156 241.578125 196.519531 241.769531 196.609375 C 242.671875 197.039062 243.597656 197.390625 244.53125 197.746094 L 247.320312 198.8125 C 249.175781 199.523438 251.035156 200.234375 252.90625 200.917969 C 253.105469 200.988281 253.34375 200.859375 253.441406 200.621094 C 253.542969 200.378906 253.460938 200.117188 253.261719 200.039062 Z M 231.441406 208.644531 L 225.398438 204.148438 C 225.222656 204.015625 224.996094 204.027344 224.894531 204.171875 C 224.792969 204.316406 224.832031 204.535156 225.011719 204.671875 L 230.941406 209.308594 C 232.929688 210.839844 234.871094 212.4375 236.921875 213.886719 C 237.085938 214.003906 237.34375 213.972656 237.480469 213.796875 C 237.628906 213.605469 237.609375 213.339844 237.433594 213.199219 C 235.492188 211.609375 233.445312 210.15625 231.441406 208.644531 Z M 223.042969 212.707031 C 222.132812 211.773438 221.21875 210.84375 220.269531 209.949219 C 220.140625 209.828125 219.949219 209.804688 219.828125 209.894531 C 219.703125 209.996094 219.703125 210.199219 219.835938 210.351562 C 220.679688 211.34375 221.566406 212.300781 222.453125 213.257812 C 223.347656 214.207031 224.242188 215.15625 225.191406 216.054688 C 225.320312 216.179688 225.523438 216.195312 225.660156 216.082031 C 225.808594 215.96875 225.824219 215.742188 225.691406 215.589844 C 224.847656 214.589844 223.941406 213.648438 223.042969 212.707031 Z M 216.847656 218.382812 L 214.351562 214.792969 C 214.222656 214.601562 213.984375 214.53125 213.832031 214.632812 C 213.675781 214.734375 213.652344 214.976562 213.78125 215.167969 L 216.21875 218.804688 C 217.039062 220.011719 217.792969 221.261719 218.664062 222.429688 C 218.789062 222.601562 219.027344 222.652344 219.210938 222.546875 C 219.402344 222.429688 219.460938 222.179688 219.339844 221.980469 C 218.566406 220.738281 217.679688 219.582031 216.847656 218.382812 Z M 231.929688 221.941406 L 229.867188 219.785156 C 229.179688 219.0625 228.496094 218.34375 227.753906 217.679688 C 227.613281 217.554688 227.402344 217.550781 227.242188 217.664062 C 227.070312 217.796875 227.042969 218.042969 227.179688 218.210938 C 227.800781 218.992188 228.488281 219.707031 229.171875 220.433594 L 231.222656 222.601562 C 232.585938 224.046875 233.957031 225.492188 235.34375 226.921875 C 235.492188 227.070312 235.761719 227.058594 235.949219 226.886719 C 236.148438 226.714844 236.183594 226.4375 236.03125 226.277344 C 234.683594 224.816406 233.308594 223.378906 231.929688 221.941406 Z M 212.65625 224.585938 L 209.152344 217.917969 C 209.050781 217.722656 208.84375 217.636719 208.6875 217.71875 C 208.527344 217.800781 208.480469 218.027344 208.582031 218.226562 L 211.917969 224.980469 C 213.050781 227.222656 214.109375 229.5 215.328125 231.695312 C 215.429688 231.875 215.664062 231.941406 215.867188 231.847656 C 216.078125 231.738281 216.179688 231.492188 216.089844 231.292969 C 215.019531 229.015625 213.800781 226.820312 212.65625 224.585938 Z M 203.335938 224.605469 C 202.921875 223.363281 202.503906 222.132812 202.042969 220.90625 C 201.980469 220.738281 201.820312 220.625 201.671875 220.660156 C 201.511719 220.695312 201.425781 220.882812 201.476562 221.078125 C 201.8125 222.339844 202.191406 223.585938 202.566406 224.832031 C 202.957031 226.074219 203.351562 227.316406 203.816406 228.542969 C 203.878906 228.710938 204.050781 228.8125 204.226562 228.769531 C 204.414062 228.726562 204.527344 228.539062 204.472656 228.34375 C 204.144531 227.085938 203.742188 225.84375 203.335938 224.605469 Z M 194.609375 222.683594 C 194.574219 222.457031 194.390625 222.292969 194.207031 222.320312 C 194.023438 222.347656 193.898438 222.558594 193.925781 222.785156 L 194.539062 227.113281 C 194.75 228.554688 194.890625 230.011719 195.160156 231.445312 C 195.199219 231.652344 195.390625 231.804688 195.601562 231.785156 C 195.828125 231.757812 195.988281 231.554688 195.964844 231.324219 C 195.804688 229.871094 195.511719 228.445312 195.285156 227.003906 Z M 207.324219 236.785156 L 206.402344 233.945312 C 206.097656 232.996094 205.800781 232.050781 205.417969 231.125 C 205.34375 230.953125 205.152344 230.84375 204.960938 230.882812 C 204.75 230.933594 204.617188 231.140625 204.667969 231.347656 C 204.890625 232.320312 205.195312 233.269531 205.492188 234.21875 L 206.394531 237.0625 C 206.992188 238.957031 207.59375 240.855469 208.222656 242.746094 C 208.289062 242.945312 208.539062 243.050781 208.785156 242.980469 C 209.035156 242.90625 209.191406 242.679688 209.128906 242.472656 C 208.546875 240.574219 207.933594 238.679688 207.324219 236.785156 Z M 188.546875 223.257812 C 188.535156 223.042969 188.390625 222.863281 188.210938 222.863281 C 188.035156 222.863281 187.886719 223.042969 187.894531 223.257812 L 187.96875 230.792969 C 188.019531 233.304688 187.984375 235.8125 188.128906 238.324219 C 188.144531 238.527344 188.324219 238.695312 188.550781 238.707031 C 188.789062 238.710938 188.988281 238.542969 188.988281 238.320312 C 189.019531 235.804688 188.871094 233.296875 188.808594 230.785156 Z M 180.597656 222.476562 C 180.4375 222.441406 180.277344 222.570312 180.242188 222.769531 C 179.996094 224.050781 179.796875 225.339844 179.601562 226.632812 C 179.417969 227.921875 179.234375 229.214844 179.121094 230.511719 C 179.105469 230.691406 179.222656 230.855469 179.390625 230.886719 C 179.582031 230.925781 179.765625 230.800781 179.796875 230.601562 C 180.046875 229.320312 180.21875 228.027344 180.394531 226.738281 C 180.554688 225.445312 180.714844 224.148438 180.824219 222.847656 C 180.84375 222.671875 180.746094 222.503906 180.597656 222.476562 Z M 173.152344 220.753906 C 172.972656 220.699219 172.769531 220.839844 172.695312 221.058594 L 171.375 225.226562 C 170.941406 226.617188 170.433594 227.992188 170.0625 229.398438 C 170.011719 229.605469 170.117188 229.820312 170.316406 229.886719 C 170.527344 229.960938 170.765625 229.84375 170.84375 229.625 C 171.328125 228.246094 171.679688 226.835938 172.101562 225.4375 L 173.355469 221.246094 C 173.421875 221.027344 173.332031 220.804688 173.152344 220.753906 Z M 179.136719 233.113281 C 178.921875 233.070312 178.714844 233.199219 178.667969 233.414062 C 178.449219 234.386719 178.3125 235.375 178.171875 236.359375 L 177.757812 239.316406 C 177.476562 241.285156 177.199219 243.253906 176.949219 245.234375 C 176.925781 245.441406 177.105469 245.640625 177.355469 245.679688 C 177.617188 245.71875 177.847656 245.578125 177.882812 245.363281 C 178.179688 243.394531 178.449219 241.425781 178.714844 239.453125 L 179.117188 236.496094 C 179.253906 235.507812 179.386719 234.527344 179.445312 233.53125 C 179.460938 233.332031 179.328125 233.15625 179.136719 233.113281 Z M 167.535156 218.644531 C 167.375 218.566406 167.167969 218.667969 167.074219 218.867188 L 163.875 225.6875 C 162.832031 227.972656 161.707031 230.214844 160.75 232.539062 C 160.671875 232.726562 160.765625 232.953125 160.96875 233.0625 C 161.179688 233.167969 161.433594 233.09375 161.535156 232.894531 C 162.652344 230.648438 163.609375 228.324219 164.640625 226.035156 L 167.667969 219.140625 C 167.75 218.9375 167.695312 218.714844 167.535156 218.644531 Z M 160.863281 215 C 160.730469 214.902344 160.535156 214.953125 160.414062 215.117188 C 159.632812 216.167969 158.894531 217.234375 158.152344 218.308594 C 157.421875 219.386719 156.695312 220.472656 156.027344 221.59375 C 155.9375 221.75 155.972656 221.949219 156.109375 222.050781 C 156.265625 222.164062 156.484375 222.125 156.605469 221.96875 C 157.386719 220.921875 158.105469 219.832031 158.824219 218.746094 C 159.53125 217.652344 160.238281 216.554688 160.90625 215.429688 C 160.996094 215.277344 160.984375 215.085938 160.863281 215 Z M 148.375 217.191406 C 148.535156 217.351562 148.800781 217.347656 148.964844 217.183594 C 150 216.152344 150.933594 215.035156 151.921875 213.960938 L 154.871094 210.734375 C 155.027344 210.5625 155.042969 210.320312 154.902344 210.195312 C 154.761719 210.070312 154.515625 210.105469 154.355469 210.273438 L 151.355469 213.457031 C 150.359375 214.519531 149.308594 215.535156 148.359375 216.644531 C 148.21875 216.804688 148.226562 217.042969 148.375 217.191406 Z M 154.359375 224.007812 C 153.742188 224.792969 153.1875 225.621094 152.632812 226.445312 L 150.96875 228.925781 C 149.855469 230.574219 148.746094 232.230469 147.664062 233.898438 C 147.546875 234.070312 147.625 234.328125 147.839844 234.472656 C 148.054688 234.617188 148.332031 234.59375 148.453125 234.414062 C 149.574219 232.773438 150.679688 231.117188 151.777344 229.457031 L 153.425781 226.96875 C 153.976562 226.140625 154.527344 225.316406 155.011719 224.4375 C 155.105469 224.273438 155.066406 224.058594 154.910156 223.941406 C 154.742188 223.804688 154.496094 223.839844 154.359375 224.007812 Z M 150.730469 205.835938 C 150.621094 205.695312 150.386719 205.695312 150.21875 205.835938 L 144.382812 210.601562 C 142.453125 212.207031 140.46875 213.746094 138.601562 215.429688 C 138.445312 215.566406 138.433594 215.8125 138.566406 215.996094 C 138.714844 216.183594 138.96875 216.230469 139.144531 216.09375 C 141.128906 214.550781 142.996094 212.871094 144.910156 211.25 L 150.628906 206.34375 C 150.800781 206.203125 150.84375 205.976562 150.730469 205.835938 Z M 139.085938 203.519531 C 138.9375 203.621094 138.878906 203.808594 138.960938 203.96875 C 139.046875 204.136719 139.261719 204.203125 139.4375 204.109375 C 140.59375 203.503906 141.710938 202.832031 142.835938 202.164062 C 143.949219 201.480469 145.054688 200.800781 146.144531 200.078125 C 146.292969 199.976562 146.363281 199.796875 146.292969 199.667969 C 146.222656 199.523438 146.019531 199.484375 145.839844 199.574219 C 144.683594 200.1875 143.550781 200.828125 142.417969 201.480469 C 141.296875 202.136719 140.167969 202.792969 139.085938 203.519531 Z M 142.480469 192.613281 L 138.398438 194.175781 C 137.039062 194.699219 135.65625 195.160156 134.316406 195.746094 C 134.121094 195.832031 134.019531 196.050781 134.09375 196.246094 C 134.171875 196.460938 134.40625 196.570312 134.628906 196.5 C 136.007812 196.019531 137.339844 195.421875 138.695312 194.878906 L 142.753906 193.253906 C 142.972656 193.164062 143.085938 192.957031 143.015625 192.785156 C 142.933594 192.605469 142.699219 192.53125 142.480469 192.613281 Z M 136.535156 204.976562 C 135.636719 205.410156 134.785156 205.917969 133.929688 206.425781 L 131.355469 207.941406 C 129.636719 208.949219 127.925781 209.957031 126.226562 210.992188 C 126.046875 211.105469 126.003906 211.367188 126.132812 211.589844 C 126.265625 211.816406 126.527344 211.914062 126.710938 211.808594 C 128.433594 210.816406 130.144531 209.792969 131.851562 208.773438 L 134.417969 207.246094 C 135.273438 206.738281 136.128906 206.226562 136.941406 205.648438 C 137.097656 205.535156 137.15625 205.328125 137.066406 205.15625 C 136.964844 204.960938 136.730469 204.878906 136.535156 204.976562 Z M 133.570312 189.390625 L 140.851562 187.464844 C 141.066406 187.40625 141.199219 187.230469 141.15625 187.054688 C 141.113281 186.878906 140.90625 186.785156 140.691406 186.832031 L 133.363281 188.578125 C 130.925781 189.179688 128.464844 189.707031 126.058594 190.402344 C 125.859375 190.460938 125.738281 190.675781 125.785156 190.894531 C 125.835938 191.128906 126.050781 191.285156 126.265625 191.234375 C 128.722656 190.710938 131.136719 190.015625 133.570312 189.390625 Z M 139.46875 179.269531 C 138.160156 179.3125 136.859375 179.40625 135.558594 179.496094 C 134.257812 179.605469 132.960938 179.710938 131.667969 179.890625 C 131.488281 179.914062 131.359375 180.0625 131.363281 180.238281 C 131.367188 180.429688 131.539062 180.582031 131.738281 180.570312 C 133.042969 180.527344 134.339844 180.414062 135.640625 180.296875 C 136.9375 180.164062 138.234375 180.035156 139.527344 179.855469 C 139.703125 179.832031 139.839844 179.699219 139.835938 179.546875 C 139.832031 179.390625 139.667969 179.265625 139.46875 179.269531 Z M 139.488281 171.523438 L 135.128906 171.167969 C 133.675781 171.050781 132.230469 170.863281 130.769531 170.8125 C 130.554688 170.808594 130.367188 170.957031 130.332031 171.167969 C 130.300781 171.390625 130.464844 171.597656 130.691406 171.621094 C 132.136719 171.789062 133.597656 171.820312 135.054688 171.917969 L 139.417969 172.207031 C 139.652344 172.222656 139.855469 172.082031 139.871094 171.898438 C 139.890625 171.707031 139.714844 171.542969 139.488281 171.523438 Z M 128.820312 180.875 C 129.007812 180.84375 129.148438 180.679688 129.144531 180.484375 C 129.136719 180.273438 128.960938 180.097656 128.742188 180.097656 C 127.742188 180.101562 126.753906 180.191406 125.761719 180.273438 L 122.785156 180.519531 C 120.800781 180.683594 118.820312 180.847656 116.839844 181.042969 C 116.632812 181.058594 116.480469 181.277344 116.5 181.535156 C 116.527344 181.796875 116.71875 181.996094 116.933594 181.980469 C 118.914062 181.835938 120.898438 181.660156 122.882812 181.480469 L 125.859375 181.214844 C 126.84375 181.128906 127.832031 181.042969 128.820312 180.875 Z M 125.152344 162.753906 C 125.097656 162.984375 125.230469 163.21875 125.441406 163.269531 C 127.886719 163.859375 130.363281 164.273438 132.824219 164.761719 L 140.222656 166.171875 C 140.4375 166.210938 140.640625 166.105469 140.671875 165.933594 C 140.707031 165.757812 140.554688 165.578125 140.34375 165.53125 L 132.980469 163.9375 C 130.523438 163.425781 128.078125 162.839844 125.601562 162.425781 C 125.402344 162.390625 125.207031 162.53125 125.152344 162.753906 Z M 134.976562 156.019531 C 136.171875 156.546875 137.398438 157.003906 138.617188 157.460938 C 139.839844 157.90625 141.070312 158.34375 142.308594 158.746094 C 142.480469 158.800781 142.664062 158.746094 142.734375 158.613281 C 142.804688 158.464844 142.714844 158.28125 142.53125 158.199219 C 141.335938 157.679688 140.125 157.195312 138.910156 156.714844 C 137.691406 156.246094 136.476562 155.78125 135.230469 155.378906 C 135.058594 155.328125 134.871094 155.398438 134.792969 155.558594 C 134.710938 155.734375 134.792969 155.9375 134.976562 156.019531 Z M 146.085938 151.757812 C 146.183594 151.597656 146.097656 151.367188 145.898438 151.246094 L 142.128906 149.027344 C 140.871094 148.292969 139.648438 147.492188 138.355469 146.8125 C 138.167969 146.714844 137.929688 146.769531 137.8125 146.945312 C 137.6875 147.136719 137.746094 147.390625 137.945312 147.519531 C 139.175781 148.296875 140.480469 148.960938 141.742188 149.683594 L 145.542969 151.84375 C 145.746094 151.953125 145.988281 151.914062 146.085938 151.757812 Z M 121.019531 150.867188 C 122.875 151.597656 124.734375 152.296875 126.597656 152.996094 L 129.394531 154.042969 C 130.328125 154.394531 131.257812 154.75 132.214844 155.023438 C 132.398438 155.074219 132.601562 154.988281 132.691406 154.8125 C 132.785156 154.621094 132.703125 154.386719 132.511719 154.296875 C 131.609375 153.867188 130.683594 153.515625 129.75 153.160156 L 126.960938 152.09375 C 125.105469 151.382812 123.246094 150.671875 121.375 149.988281 C 121.175781 149.917969 120.9375 150.046875 120.839844 150.285156 C 120.738281 150.523438 120.820312 150.785156 121.019531 150.867188 Z M 142.839844 142.261719 L 148.882812 146.757812 C 149.058594 146.890625 149.285156 146.878906 149.386719 146.734375 C 149.488281 146.589844 149.449219 146.371094 149.269531 146.234375 L 143.339844 141.597656 C 141.351562 140.066406 139.410156 138.46875 137.359375 137.019531 C 137.195312 136.902344 136.9375 136.933594 136.800781 137.109375 C 136.652344 137.300781 136.671875 137.566406 136.839844 137.707031 C 138.789062 139.296875 140.835938 140.75 142.839844 142.261719 Z M 151.238281 138.195312 C 152.148438 139.128906 153.0625 140.058594 154.011719 140.953125 C 154.140625 141.074219 154.332031 141.097656 154.453125 141.003906 C 154.578125 140.902344 154.578125 140.699219 154.445312 140.550781 C 153.601562 139.558594 152.714844 138.601562 151.828125 137.644531 C 150.933594 136.695312 150.039062 135.746094 149.089844 134.847656 C 148.960938 134.722656 148.757812 134.707031 148.621094 134.816406 C 148.472656 134.933594 148.457031 135.160156 148.585938 135.3125 C 149.433594 136.3125 150.339844 137.257812 151.238281 138.195312 Z M 157.433594 132.523438 L 159.929688 136.113281 C 160.058594 136.304688 160.296875 136.375 160.449219 136.273438 C 160.605469 136.171875 160.628906 135.929688 160.5 135.738281 L 158.0625 132.101562 C 157.242188 130.894531 156.488281 129.644531 155.617188 128.476562 C 155.492188 128.304688 155.253906 128.253906 155.070312 128.359375 C 154.878906 128.476562 154.820312 128.726562 154.941406 128.925781 C 155.714844 130.164062 156.601562 131.324219 157.433594 132.523438 Z M 142.351562 128.964844 L 144.414062 131.121094 C 145.097656 131.84375 145.785156 132.5625 146.527344 133.226562 C 146.667969 133.351562 146.878906 133.355469 147.039062 133.242188 C 147.210938 133.109375 147.238281 132.863281 147.101562 132.695312 C 146.476562 131.914062 145.792969 131.199219 145.109375 130.472656 L 143.058594 128.304688 C 141.695312 126.859375 140.324219 125.414062 138.9375 123.984375 C 138.789062 123.835938 138.519531 123.847656 138.332031 124.019531 C 138.132812 124.191406 138.097656 124.46875 138.25 124.628906 C 139.597656 126.085938 140.972656 127.527344 142.351562 128.964844 Z M 161.625 126.316406 L 165.128906 132.984375 C 165.230469 133.175781 165.4375 133.265625 165.59375 133.183594 C 165.753906 133.101562 165.800781 132.871094 165.699219 132.675781 L 162.363281 125.921875 C 161.230469 123.679688 160.171875 121.402344 158.953125 119.203125 C 158.847656 119.027344 158.617188 118.957031 158.414062 119.054688 C 158.203125 119.160156 158.101562 119.40625 158.191406 119.605469 C 159.261719 121.890625 160.480469 124.085938 161.625 126.316406 Z M 170.945312 126.300781 C 171.359375 127.539062 171.777344 128.773438 172.238281 130 C 172.300781 130.167969 172.460938 130.28125 172.609375 130.246094 C 172.769531 130.210938 172.855469 130.023438 172.804688 129.828125 C 172.46875 128.566406 172.089844 127.320312 171.714844 126.074219 C 171.324219 124.832031 170.929688 123.589844 170.464844 122.363281 C 170.402344 122.195312 170.230469 122.09375 170.054688 122.136719 C 169.867188 122.179688 169.753906 122.367188 169.808594 122.5625 C 170.136719 123.820312 170.539062 125.058594 170.945312 126.300781 Z M 179.671875 128.222656 C 179.707031 128.449219 179.890625 128.613281 180.074219 128.585938 C 180.257812 128.558594 180.382812 128.347656 180.355469 128.121094 L 179.742188 123.792969 C 179.53125 122.351562 179.390625 120.894531 179.121094 119.460938 C 179.082031 119.253906 178.890625 119.101562 178.679688 119.121094 C 178.453125 119.148438 178.292969 119.351562 178.316406 119.582031 C 178.476562 121.035156 178.769531 122.460938 178.996094 123.902344 Z M 166.957031 114.113281 L 167.878906 116.957031 C 168.183594 117.902344 168.480469 118.851562 168.863281 119.777344 C 168.9375 119.949219 169.128906 120.054688 169.320312 120.019531 C 169.53125 119.96875 169.664062 119.761719 169.613281 119.554688 C 169.390625 118.582031 169.085938 117.632812 168.785156 116.683594 L 167.886719 113.839844 C 167.289062 111.941406 166.6875 110.046875 166.058594 108.15625 C 165.992188 107.957031 165.742188 107.851562 165.496094 107.921875 C 165.246094 107.996094 165.089844 108.222656 165.152344 108.429688 C 165.734375 110.332031 166.347656 112.222656 166.957031 114.113281 Z M 185.734375 127.644531 C 185.746094 127.859375 185.890625 128.039062 186.070312 128.039062 C 186.246094 128.039062 186.394531 127.859375 186.386719 127.644531 L 186.3125 120.109375 C 186.261719 117.597656 186.296875 115.085938 186.152344 112.578125 C 186.136719 112.375 185.957031 112.203125 185.730469 112.195312 C 185.492188 112.191406 185.292969 112.359375 185.292969 112.582031 C 185.261719 115.097656 185.410156 117.601562 185.472656 120.113281 Z M 193.683594 128.429688 C 193.84375 128.464844 194.003906 128.335938 194.039062 128.136719 C 194.285156 126.855469 194.484375 125.566406 194.679688 124.273438 C 194.863281 122.984375 195.046875 121.691406 195.160156 120.394531 C 195.175781 120.214844 195.058594 120.050781 194.890625 120.019531 C 194.699219 119.980469 194.515625 120.105469 194.484375 120.304688 C 194.234375 121.585938 194.0625 122.878906 193.886719 124.167969 C 193.726562 125.460938 193.566406 126.757812 193.457031 128.058594 C 193.4375 128.234375 193.535156 128.398438 193.683594 128.429688 Z M 201.128906 130.148438 C 201.308594 130.203125 201.511719 130.0625 201.585938 129.84375 L 202.90625 125.671875 C 203.339844 124.285156 203.847656 122.910156 204.21875 121.503906 C 204.269531 121.296875 204.164062 121.082031 203.964844 121.015625 C 203.753906 120.941406 203.515625 121.058594 203.4375 121.277344 C 202.953125 122.65625 202.601562 124.066406 202.179688 125.464844 L 200.925781 129.65625 C 200.859375 129.878906 200.949219 130.101562 201.128906 130.148438 Z M 195.144531 117.792969 C 195.359375 117.835938 195.566406 117.703125 195.613281 117.492188 C 195.832031 116.519531 195.96875 115.53125 196.109375 114.546875 L 196.523438 111.589844 C 196.804688 109.621094 197.082031 107.652344 197.332031 105.671875 C 197.355469 105.464844 197.175781 105.265625 196.925781 105.226562 C 196.664062 105.1875 196.433594 105.328125 196.398438 105.542969 C 196.101562 107.511719 195.832031 109.480469 195.566406 111.453125 L 195.160156 114.414062 C 195.023438 115.402344 194.890625 116.382812 194.832031 117.382812 C 194.820312 117.574219 194.953125 117.75 195.144531 117.792969 Z M 206.746094 132.261719 C 206.90625 132.339844 207.113281 132.238281 207.207031 132.039062 L 210.40625 125.21875 C 211.449219 122.933594 212.574219 120.691406 213.53125 118.367188 C 213.609375 118.179688 213.515625 117.953125 213.3125 117.84375 C 213.101562 117.738281 212.847656 117.8125 212.746094 118.011719 C 211.628906 120.257812 210.671875 122.582031 209.640625 124.871094 L 206.613281 131.765625 C 206.53125 131.96875 206.585938 132.191406 206.746094 132.261719 Z M 213.417969 135.90625 C 213.550781 136.003906 213.746094 135.953125 213.867188 135.789062 C 214.648438 134.738281 215.386719 133.671875 216.128906 132.597656 C 216.859375 131.519531 217.585938 130.433594 218.253906 129.3125 C 218.34375 129.15625 218.308594 128.957031 218.171875 128.855469 C 218.015625 128.742188 217.796875 128.78125 217.675781 128.9375 C 216.894531 129.984375 216.175781 131.074219 215.457031 132.160156 C 214.75 133.253906 214.042969 134.351562 213.375 135.476562 C 213.285156 135.625 213.304688 135.8125 213.417969 135.90625 Z M 225.925781 134.261719 C 226.0625 134.101562 226.0625 133.859375 225.910156 133.710938 C 225.75 133.550781 225.484375 133.554688 225.320312 133.71875 C 224.285156 134.75 223.351562 135.867188 222.363281 136.941406 L 219.414062 140.167969 C 219.257812 140.335938 219.242188 140.578125 219.382812 140.707031 C 219.523438 140.832031 219.769531 140.796875 219.929688 140.628906 L 222.929688 137.445312 C 223.925781 136.386719 224.976562 135.367188 225.925781 134.261719 Z M 219.921875 126.898438 C 220.539062 126.113281 221.09375 125.285156 221.648438 124.460938 L 223.3125 121.980469 C 224.425781 120.332031 225.535156 118.675781 226.617188 117.007812 C 226.734375 116.835938 226.65625 116.578125 226.441406 116.433594 C 226.226562 116.289062 225.949219 116.3125 225.828125 116.492188 C 224.707031 118.128906 223.601562 119.789062 222.503906 121.449219 L 220.855469 123.9375 C 220.304688 124.765625 219.753906 125.589844 219.269531 126.46875 C 219.175781 126.632812 219.214844 126.847656 219.371094 126.964844 C 219.539062 127.097656 219.785156 127.066406 219.921875 126.898438 Z M 199.691406 174.496094 C 198.917969 173.703125 198.109375 172.9375 197.308594 172.175781 C 196.929688 171.820312 196.355469 172.390625 196.738281 172.75 C 197.59375 173.554688 198.449219 174.371094 199.265625 175.222656 C 197.90625 175.1875 196.554688 175.148438 195.214844 175.148438 C 194.691406 175.148438 194.691406 175.957031 195.214844 175.957031 C 196.484375 175.957031 197.765625 175.988281 199.050781 176.023438 C 198.304688 176.839844 197.558594 177.664062 196.789062 178.460938 C 196.425781 178.839844 197.003906 179.410156 197.359375 179.035156 C 198.179688 178.1875 198.96875 177.316406 199.761719 176.445312 C 199.8125 177.839844 199.867188 179.226562 199.867188 180.609375 C 199.867188 181.132812 200.675781 181.132812 200.675781 180.609375 C 200.675781 179.300781 200.625 177.984375 200.578125 176.664062 C 201.3125 177.542969 202.023438 178.539062 203.050781 179.097656 C 203.511719 179.34375 203.917969 178.644531 203.460938 178.394531 C 202.5 177.871094 201.820312 176.90625 201.125 176.058594 C 202.445312 176.078125 203.761719 176.082031 205.066406 176.007812 C 205.585938 175.980469 205.589844 175.171875 205.066406 175.203125 C 203.679688 175.277344 202.273438 175.273438 200.863281 175.25 C 201.75 174.285156 202.648438 173.335938 203.597656 172.433594 C 203.976562 172.074219 203.402344 171.5 203.027344 171.863281 C 202.15625 172.695312 201.328125 173.566406 200.511719 174.445312 C 200.460938 172.773438 200.453125 171.09375 200.578125 169.429688 C 200.617188 168.910156 199.808594 168.910156 199.769531 169.429688 C 199.628906 171.109375 199.644531 172.800781 199.691406 174.496094 Z M 179.847656 177.363281 C 179.84375 177.363281 179.832031 177.359375 179.828125 177.359375 C 179.042969 177.320312 178.425781 178.132812 178.472656 178.886719 C 178.527344 179.714844 179.457031 180.324219 180.234375 180.238281 C 180.949219 180.160156 181.550781 179.5625 181.546875 178.824219 C 181.539062 177.925781 180.707031 177.375 179.871094 177.359375 C 179.863281 177.359375 179.855469 177.359375 179.847656 177.363281 Z M 207.3125 154.121094 C 207.789062 154.070312 208.195312 153.667969 208.1875 153.179688 C 208.183594 152.578125 207.628906 152.210938 207.070312 152.199219 C 207.066406 152.199219 207.058594 152.199219 207.050781 152.207031 C 207.046875 152.207031 207.042969 152.199219 207.039062 152.199219 C 206.515625 152.175781 206.097656 152.71875 206.132812 153.222656 C 206.171875 153.773438 206.789062 154.179688 207.3125 154.121094 Z M 182.765625 144.9375 C 183.121094 144.898438 183.421875 144.601562 183.421875 144.234375 C 183.417969 143.78125 183 143.507812 182.585938 143.496094 C 182.582031 143.496094 182.574219 143.496094 182.570312 143.503906 C 182.566406 143.503906 182.566406 143.503906 182.5625 143.496094 C 182.167969 143.476562 181.859375 143.882812 181.882812 144.261719 C 181.90625 144.671875 182.371094 144.976562 182.765625 144.9375 Z M 198.015625 163.582031 C 198.007812 163.582031 198.007812 163.582031 198.003906 163.574219 C 197.613281 163.554688 197.304688 163.960938 197.328125 164.339844 C 197.355469 164.75 197.816406 165.054688 198.207031 165.015625 C 198.566406 164.980469 198.867188 164.679688 198.867188 164.3125 C 198.859375 163.859375 198.445312 163.585938 198.027344 163.574219 C 198.023438 163.574219 198.019531 163.582031 198.015625 163.582031 Z M 195.511719 147.714844 C 195.179688 147.117188 195.046875 146.125 194.972656 145.4375 C 194.957031 145.324219 194.957031 144.527344 194.769531 144.625 C 194.714844 144.652344 194.730469 144.792969 194.722656 144.84375 C 194.703125 145.039062 194.6875 145.238281 194.667969 145.433594 C 194.589844 146.121094 194.457031 147.109375 194.125 147.710938 C 193.542969 148.757812 192.445312 149.234375 191.386719 149.515625 C 191.261719 149.550781 191.1875 149.765625 191.351562 149.8125 C 191.992188 149.980469 192.640625 150.054688 193.1875 150.46875 C 193.726562 150.886719 194.03125 151.46875 194.222656 152.117188 C 194.546875 153.242188 194.558594 153.589844 194.652344 154.742188 C 194.65625 154.769531 194.65625 154.800781 194.65625 154.828125 C 194.65625 154.832031 194.65625 154.835938 194.65625 154.847656 C 194.660156 154.90625 194.703125 154.949219 194.757812 154.964844 C 194.761719 154.964844 194.769531 154.96875 194.773438 154.96875 C 194.789062 154.972656 194.800781 154.972656 194.816406 154.972656 C 194.832031 154.972656 194.84375 154.972656 194.859375 154.96875 C 194.863281 154.96875 194.871094 154.964844 194.875 154.964844 C 194.925781 154.945312 194.972656 154.90625 194.976562 154.847656 C 194.976562 154.84375 194.976562 154.835938 194.976562 154.828125 C 194.980469 154.800781 194.980469 154.769531 194.980469 154.742188 C 195.078125 153.589844 195.085938 153.238281 195.410156 152.117188 C 195.601562 151.46875 195.90625 150.886719 196.445312 150.46875 C 196.988281 150.054688 197.636719 149.980469 198.28125 149.8125 C 198.445312 149.765625 198.371094 149.550781 198.246094 149.515625 C 197.191406 149.238281 196.097656 148.761719 195.511719 147.714844 Z M 161.84375 156.375 C 162.242188 156.476562 162.644531 156.527344 162.976562 156.78125 C 163.308594 157.039062 163.5 157.402344 163.613281 157.804688 C 163.816406 158.496094 163.824219 158.714844 163.882812 159.425781 C 163.882812 159.445312 163.886719 159.464844 163.886719 159.476562 C 163.886719 159.480469 163.886719 159.480469 163.886719 159.488281 C 163.890625 159.519531 163.914062 159.550781 163.949219 159.558594 C 163.953125 159.558594 163.953125 159.566406 163.957031 159.566406 C 163.96875 159.566406 163.976562 159.570312 163.984375 159.570312 C 163.992188 159.570312 164.003906 159.570312 164.007812 159.566406 C 164.011719 159.566406 164.011719 159.566406 164.015625 159.558594 C 164.050781 159.550781 164.078125 159.519531 164.078125 159.488281 C 164.078125 159.480469 164.078125 159.480469 164.078125 159.476562 C 164.078125 159.457031 164.085938 159.4375 164.085938 159.425781 C 164.140625 158.714844 164.152344 158.496094 164.351562 157.804688 C 164.464844 157.402344 164.65625 157.042969 164.988281 156.78125 C 165.324219 156.527344 165.722656 156.484375 166.121094 156.375 C 166.222656 156.351562 166.179688 156.214844 166.101562 156.191406 C 165.449219 156.019531 164.769531 155.722656 164.414062 155.078125 C 164.207031 154.707031 164.128906 154.097656 164.078125 153.671875 C 164.070312 153.605469 164.070312 153.109375 163.953125 153.167969 C 163.921875 153.183594 163.929688 153.269531 163.925781 153.304688 C 163.914062 153.425781 163.902344 153.546875 163.886719 153.671875 C 163.835938 154.097656 163.761719 154.710938 163.550781 155.078125 C 163.195312 155.722656 162.515625 156.019531 161.863281 156.191406 C 161.785156 156.210938 161.746094 156.347656 161.84375 156.375 Z M 181.894531 166.136719 C 183.335938 165.753906 184.824219 165.097656 185.617188 163.683594 C 186.074219 162.863281 186.246094 161.515625 186.355469 160.574219 C 186.382812 160.308594 186.40625 160.039062 186.4375 159.769531 C 186.441406 159.699219 186.421875 159.507812 186.496094 159.46875 C 186.757812 159.335938 186.757812 160.421875 186.773438 160.570312 C 186.882812 161.507812 187.054688 162.859375 187.511719 163.675781 C 188.304688 165.097656 189.792969 165.753906 191.234375 166.128906 C 191.410156 166.171875 191.503906 166.472656 191.28125 166.53125 C 190.410156 166.757812 189.523438 166.859375 188.789062 167.425781 C 188.050781 167.992188 187.636719 168.789062 187.378906 169.671875 C 186.933594 171.195312 186.921875 171.675781 186.789062 173.242188 C 186.785156 173.28125 186.785156 173.324219 186.78125 173.363281 C 186.78125 173.371094 186.78125 173.378906 186.78125 173.386719 C 186.773438 173.464844 186.710938 173.523438 186.640625 173.546875 C 186.636719 173.546875 186.628906 173.550781 186.621094 173.550781 C 186.601562 173.554688 186.582031 173.5625 186.5625 173.5625 C 186.542969 173.5625 186.523438 173.554688 186.503906 173.550781 C 186.5 173.550781 186.496094 173.546875 186.484375 173.546875 C 186.414062 173.523438 186.347656 173.464844 186.34375 173.386719 C 186.34375 173.378906 186.34375 173.371094 186.34375 173.363281 C 186.339844 173.324219 186.339844 173.28125 186.335938 173.242188 C 186.203125 171.675781 186.191406 171.195312 185.746094 169.671875 C 185.488281 168.789062 185.078125 167.992188 184.335938 167.425781 C 183.597656 166.859375 182.714844 166.757812 181.84375 166.53125 C 181.621094 166.472656 181.71875 166.179688 181.894531 166.136719 Z M 182.734375 166.347656 C 184.09375 166.746094 185.203125 167.253906 185.855469 168.734375 C 186.28125 169.6875 186.457031 170.710938 186.5625 171.75 C 186.664062 170.710938 186.84375 169.6875 187.269531 168.734375 C 187.925781 167.253906 189.035156 166.746094 190.390625 166.347656 C 189.253906 166.058594 188.128906 165.292969 187.394531 164.296875 C 186.964844 163.707031 186.71875 162.601562 186.5625 161.886719 C 186.402344 162.601562 186.160156 163.707031 185.730469 164.296875 C 184.996094 165.292969 183.871094 166.058594 182.734375 166.347656 Z M 172.941406 152.472656 C 174.578125 152.339844 175.382812 152.355469 176.957031 152.335938 C 176.582031 152.710938 176.175781 153.042969 175.777344 153.40625 C 175.3125 153.828125 174.320312 154.933594 174.339844 155.015625 C 174.347656 155.03125 174.347656 155.046875 174.351562 155.058594 C 174.378906 155.199219 174.5625 155.230469 174.65625 155.144531 C 175.078125 154.753906 175.394531 154.285156 175.796875 153.882812 C 176.199219 153.488281 176.648438 153.144531 177.058594 152.757812 C 177.113281 154.402344 177.179688 156.042969 177.230469 157.6875 C 177.234375 157.824219 177.382812 157.925781 177.503906 157.847656 C 177.621094 157.773438 177.597656 157.707031 177.59375 157.582031 C 177.585938 157.460938 177.582031 157.34375 177.578125 157.222656 C 177.566406 156.984375 177.5625 156.75 177.554688 156.507812 C 177.535156 155.878906 177.511719 155.25 177.484375 154.617188 C 177.476562 154.300781 177.460938 153.984375 177.453125 153.671875 C 177.449219 153.511719 177.441406 153.355469 177.4375 153.199219 C 177.433594 153.117188 177.433594 153.03125 177.429688 152.949219 C 177.429688 152.917969 177.441406 152.765625 177.421875 152.742188 C 178.160156 153.53125 178.9375 154.285156 179.625 155.113281 C 179.773438 155.296875 180.03125 155.035156 179.886719 154.851562 C 179.152344 153.972656 178.316406 153.167969 177.539062 152.320312 C 178.933594 152.296875 180.316406 152.257812 181.710938 152.199219 C 181.945312 152.191406 181.945312 151.824219 181.710938 151.832031 C 180.414062 151.886719 179.117188 151.921875 177.824219 151.949219 C 178.570312 151.09375 179.261719 150.199219 180.175781 149.5 C 180.359375 149.359375 180.179688 149.042969 179.992188 149.1875 C 178.984375 149.953125 178.230469 150.933594 177.402344 151.871094 C 177.382812 151.15625 177.257812 147.417969 177.261719 147.117188 C 177.269531 146.878906 176.9375 146.789062 176.910156 147.019531 C 176.851562 147.46875 177.007812 150.859375 177.035156 151.773438 C 176.273438 150.949219 175.472656 150.164062 174.617188 149.429688 C 174.4375 149.277344 174.175781 149.535156 174.355469 149.691406 C 175.191406 150.40625 175.972656 151.171875 176.71875 151.972656 C 176.707031 151.972656 176.699219 151.972656 176.6875 151.972656 C 176.296875 151.972656 173.910156 152.015625 172.851562 152.117188 C 172.613281 152.136719 172.710938 152.492188 172.941406 152.472656 Z M 83.5625 151.445312 C 82.730469 150.339844 80.125 151.039062 79.320312 151.820312 C 78.003906 153.101562 78.550781 154.8125 79.089844 156.28125 C 79.347656 156.996094 79.707031 158.867188 80.433594 159.109375 C 81.007812 159.304688 81.902344 158.800781 82.449219 158.660156 C 83.160156 158.484375 83.90625 158.421875 84.601562 158.191406 C 86.503906 157.558594 86.050781 154.867188 85.128906 153.527344 C 84.851562 153.117188 84.070312 151.519531 83.5625 151.445312 Z M 115.597656 221.070312 C 115.941406 223.554688 116.148438 226.171875 115.890625 228.671875 C 115.777344 229.804688 115.304688 230.886719 115.152344 232.027344 C 114.972656 233.339844 114.785156 234.605469 114.449219 235.890625 C 113.980469 237.699219 113.445312 239.355469 112.503906 240.960938 C 111.460938 242.75 110.292969 244.464844 109.351562 246.3125 C 108.652344 247.683594 108.039062 248.824219 107.058594 250.03125 C 106.144531 251.15625 105.09375 252.15625 104.167969 253.269531 C 102.027344 255.851562 100.667969 258.710938 98.96875 261.578125 C 97.398438 264.214844 95.671875 266.75 94.027344 269.335938 C 93.835938 269.636719 93.199219 269.355469 93.414062 269.027344 C 95.058594 266.4375 96.785156 263.902344 98.351562 261.265625 C 100.050781 258.40625 101.421875 255.546875 103.554688 252.960938 C 104.480469 251.84375 105.527344 250.839844 106.441406 249.722656 C 107.425781 248.523438 108.03125 247.363281 108.734375 246.003906 C 110.59375 242.425781 112.851562 239.390625 113.855469 235.417969 C 114.203125 234.042969 114.320312 232.667969 114.554688 231.28125 C 114.796875 229.863281 115.195312 228.648438 115.191406 227.1875 C 115.183594 225.9375 115.3125 224.714844 115.203125 223.460938 C 114.953125 220.550781 114.550781 217.660156 114.328125 214.738281 C 114.136719 212.195312 113.464844 209.734375 112.988281 207.234375 C 112.457031 204.441406 111.363281 201.800781 110.464844 199.117188 C 109.800781 197.128906 109.015625 195.308594 108.003906 193.464844 C 105.609375 189.09375 102.546875 185.105469 99.679688 181.046875 C 98.4375 179.289062 97.472656 177.464844 96.578125 175.527344 C 95.546875 173.300781 94.300781 171.191406 93.335938 168.925781 C 92.324219 166.550781 91.488281 164.113281 90.691406 161.660156 C 89.980469 159.480469 89.730469 157.246094 88.671875 155.179688 C 87.089844 152.085938 84.070312 147.109375 79.957031 149.761719 C 78.648438 150.605469 77.488281 152.070312 77.417969 153.679688 C 77.320312 156.03125 78.757812 158.191406 79.691406 160.277344 C 80.601562 162.304688 81.425781 164.414062 81.75 166.628906 C 82.054688 168.714844 81.960938 170.867188 82.21875 172.972656 C 82.527344 175.53125 83.824219 177.824219 84.445312 180.3125 C 84.933594 182.285156 85.464844 184.457031 85.585938 186.484375 C 85.683594 188.09375 85.746094 190.183594 85.101562 191.738281 C 85.101562 191.78125 85.097656 191.832031 85.066406 191.878906 C 85.042969 191.917969 85.023438 191.957031 85 191.996094 C 84.816406 192.304688 84.214844 192.035156 84.386719 191.683594 C 85.714844 188.9375 84.691406 185.3125 84.191406 182.492188 C 83.660156 179.46875 82.101562 176.710938 81.625 173.710938 C 81.207031 171.117188 81.457031 168.414062 80.921875 165.859375 C 80.253906 162.679688 78.75 159.859375 77.398438 156.953125 C 76.660156 155.359375 76.339844 153.199219 77.226562 151.605469 C 78.097656 150.042969 79.710938 149.007812 81.421875 148.5625 C 81.761719 148.476562 82.09375 148.445312 82.417969 148.441406 C 82.914062 148.566406 83.429688 148.617188 83.925781 148.742188 C 83.960938 148.738281 83.972656 148.746094 83.992188 148.75 C 85.085938 144.066406 85.6875 139.394531 85.691406 134.570312 C 85.695312 131.5625 85.53125 117.734375 79.972656 120.539062 C 79.886719 120.628906 79.804688 120.757812 79.726562 120.925781 C 81.265625 120.800781 81.65625 124.753906 81.617188 125.609375 C 81.578125 126.472656 81.28125 127.890625 80.347656 128.015625 C 79.894531 128.074219 79.316406 127.800781 78.859375 127.761719 C 78.617188 127.746094 78.375 127.738281 78.140625 127.699219 C 77.898438 128.746094 77.632812 129.789062 77.339844 130.820312 C 75.914062 135.90625 74.121094 140.921875 72.933594 146.070312 C 72.300781 148.824219 71.660156 151.5625 71.527344 154.386719 C 71.390625 157.160156 71.660156 159.921875 71.832031 162.683594 C 72.164062 168.109375 71.261719 173.539062 71.277344 178.957031 C 71.277344 179.023438 71.265625 179.070312 71.246094 179.117188 C 71.433594 180.949219 71.925781 182.648438 72.792969 184.382812 C 73.777344 186.347656 75.035156 188.15625 76 190.136719 C 78.265625 194.78125 80.179688 199.769531 81.75 204.691406 C 83.351562 209.722656 85.046875 214.710938 86.390625 219.820312 C 86.960938 221.984375 86.925781 223.96875 86.851562 226.210938 C 86.824219 227.148438 86.800781 228.097656 86.597656 229.019531 C 86.363281 230.054688 86.097656 231.019531 85.46875 231.890625 C 84.945312 232.609375 84.273438 233.1875 83.71875 233.875 C 81.890625 236.148438 79.847656 238.175781 78.085938 240.511719 C 77.199219 241.6875 76.222656 242.746094 75.277344 243.875 C 74.273438 245.058594 73.535156 246.429688 72.601562 247.667969 C 71.730469 248.824219 71.03125 250.066406 70.242188 251.28125 C 69.296875 252.746094 68.128906 253.554688 67.003906 254.816406 C 66.765625 255.078125 66.132812 254.789062 66.386719 254.507812 C 67.332031 253.457031 68.464844 252.6875 69.285156 251.5 C 70.121094 250.285156 70.796875 248.964844 71.671875 247.773438 C 73.191406 245.707031 74.65625 243.703125 76.300781 241.734375 C 77.859375 239.871094 79.164062 237.878906 80.894531 236.15625 C 81.984375 235.070312 82.890625 233.828125 83.878906 232.65625 C 84.449219 231.976562 85.121094 231.3125 85.453125 230.476562 C 85.804688 229.597656 85.796875 228.628906 85.90625 227.699219 C 86.007812 226.820312 86.160156 225.910156 86.160156 225.019531 C 86.160156 223.523438 86.300781 222.15625 85.933594 220.683594 C 85.175781 217.640625 84.347656 214.566406 83.316406 211.605469 C 81.242188 205.644531 79.316406 199.695312 76.914062 193.847656 C 75.855469 191.265625 74.648438 188.8125 73.210938 186.417969 C 72.113281 184.582031 70.992188 182.609375 70.722656 180.476562 C 70.632812 179.734375 70.582031 179 70.558594 178.265625 C 70.613281 178.257812 70.664062 178.25 70.71875 178.246094 C 70.75 172.363281 71.476562 166.53125 71.152344 160.632812 C 70.992188 157.746094 70.722656 154.863281 71.132812 151.976562 C 71.550781 149.0625 72.261719 146.164062 73.070312 143.332031 C 74.65625 137.773438 76.480469 132.242188 77.78125 126.605469 C 78.058594 125.414062 78.25 124.207031 78.503906 123.007812 C 78.664062 122.234375 78.851562 120.894531 79.425781 120.128906 C 79.445312 120.066406 79.480469 120.011719 79.542969 119.980469 C 79.558594 119.972656 79.566406 119.96875 79.582031 119.960938 C 79.722656 119.816406 79.875 119.6875 80.066406 119.621094 C 80.066406 119.65625 80.058594 119.695312 80.058594 119.730469 C 85.105469 117.648438 85.953125 127.265625 86.121094 130.363281 C 86.433594 135.925781 86.097656 141.316406 85.039062 146.730469 C 85.386719 145.898438 85.710938 145.066406 86.082031 144.246094 C 86.863281 142.550781 87.648438 140.855469 88.445312 139.164062 C 90.074219 135.710938 90.894531 131.949219 92.082031 128.328125 C 93.1875 124.976562 93.289062 123.414062 94.835938 119.210938 C 97.046875 113.199219 101.117188 116.71875 102.039062 118.429688 C 103.171875 120.519531 103.792969 123.113281 103.375 125.484375 C 103.46875 125.476562 103.570312 125.488281 103.652344 125.558594 C 104.792969 126.421875 105.535156 128.710938 106.046875 130 C 106.742188 131.761719 106.542969 133.839844 106.4375 135.691406 C 106.269531 138.738281 105.519531 141.5625 104.535156 144.347656 C 104.59375 144.371094 104.652344 144.421875 104.695312 144.519531 C 106.960938 149.46875 107.253906 155.359375 106.269531 160.628906 C 105.566406 164.378906 104.734375 168.066406 103.761719 171.75 C 102.90625 175.019531 102.292969 178.277344 101.195312 181.480469 C 101.148438 181.601562 101.078125 181.644531 101 181.640625 C 101.722656 182.632812 102.445312 183.621094 103.105469 184.65625 C 105.738281 188.785156 109.140625 192.855469 110.679688 197.582031 C 112.300781 202.566406 113.925781 207.386719 114.777344 212.574219 C 115.222656 215.398438 115.203125 218.257812 115.597656 221.070312 Z M 79.136719 122.84375 C 79.15625 122.761719 79.164062 122.65625 79.175781 122.539062 C 79.125 122.746094 79.089844 122.960938 79.050781 123.167969 C 79.078125 123.054688 79.113281 122.953125 79.136719 122.84375 Z M 91.394531 161.675781 C 91.867188 160.488281 92.496094 159.367188 92.921875 158.167969 C 93.496094 156.539062 93.984375 154.847656 94.371094 153.167969 C 95.121094 149.921875 95.984375 146.738281 96.519531 143.453125 C 96.980469 140.652344 101.121094 130.191406 102.089844 127.503906 C 103.167969 124.507812 103.046875 121.714844 101.527344 118.898438 C 101.019531 117.957031 99.863281 116.578125 98.164062 116.585938 C 95.246094 116.601562 94.003906 125.035156 93.0625 127.617188 C 92.019531 130.472656 91.300781 133.429688 90.375 136.316406 C 89.5625 138.855469 88.199219 141.242188 87.105469 143.671875 C 86.453125 145.117188 85.769531 146.574219 85.222656 148.0625 C 85.058594 148.507812 85.046875 148.859375 84.738281 149.136719 C 86.808594 150.40625 88.339844 153.144531 89.320312 155.058594 C 90.394531 157.15625 90.757812 159.4375 91.394531 161.675781 Z M 95.597656 172.335938 C 95.742188 171.699219 96.335938 170.917969 96.632812 170.304688 C 97.632812 168.195312 98.5 166.015625 99.078125 163.75 C 99.625 161.609375 100.257812 159.480469 100.648438 157.308594 C 101.023438 155.179688 102.859375 147.085938 103.578125 145.214844 C 104.378906 143.152344 105 140.980469 105.398438 138.808594 C 105.792969 136.632812 105.914062 134.304688 105.761719 132.09375 C 105.671875 130.878906 105.3125 129.9375 104.785156 128.851562 C 104.40625 128.074219 103.957031 126.65625 103.265625 126.046875 C 102.527344 129.039062 97.464844 142.011719 97.195312 143.632812 C 96.640625 147.019531 95.785156 150.328125 94.976562 153.671875 C 94.574219 155.328125 94.101562 157.03125 93.503906 158.625 C 93.011719 159.945312 92.257812 161.175781 91.816406 162.519531 C 91.796875 162.589844 91.75 162.632812 91.695312 162.660156 C 92.566406 165.332031 93.558594 167.976562 94.75 170.527344 C 95.03125 171.117188 95.308594 171.726562 95.597656 172.335938 Z M 100.71875 180.992188 C 101.804688 177.789062 102.40625 174.527344 103.273438 171.269531 C 104.117188 168.109375 104.828125 164.945312 105.449219 161.730469 C 106.515625 156.246094 106.617188 150.285156 104.300781 145.058594 C 104.292969 145.054688 104.289062 145.050781 104.285156 145.039062 C 103.886719 146.121094 100.984375 159.222656 100.375 161.441406 C 99.746094 163.726562 99.191406 165.96875 98.328125 168.179688 C 98.003906 169.011719 97.636719 169.800781 97.25 170.609375 C 97.203125 170.710938 96.105469 172.703125 96.148438 172.800781 C 96.21875 172.976562 96.117188 173.082031 95.972656 173.117188 C 96.777344 174.820312 97.613281 176.53125 98.546875 178.09375 C 99.089844 179 99.6875 179.859375 100.304688 180.710938 C 100.308594 180.648438 100.324219 180.585938 100.332031 180.523438 C 100.453125 180.6875 100.582031 180.839844 100.71875 180.992188 Z M 289.957031 158.191406 C 290.65625 158.421875 291.398438 158.484375 292.109375 158.660156 C 292.65625 158.796875 293.554688 159.296875 294.128906 159.109375 C 294.855469 158.867188 295.210938 156.992188 295.472656 156.28125 C 296.011719 154.8125 296.558594 153.101562 295.242188 151.820312 C 294.4375 151.039062 291.832031 150.339844 291 151.445312 C 290.496094 151.519531 289.710938 153.109375 289.425781 153.527344 C 288.507812 154.867188 288.058594 157.5625 289.957031 158.191406 Z M 307.558594 254.832031 C 306.425781 253.570312 305.265625 252.761719 304.316406 251.296875 C 303.535156 250.082031 302.832031 248.839844 301.960938 247.683594 C 301.027344 246.441406 300.289062 245.074219 299.285156 243.886719 C 298.339844 242.765625 297.359375 241.707031 296.476562 240.527344 C 294.714844 238.1875 292.671875 236.160156 290.84375 233.886719 C 290.292969 233.199219 289.613281 232.621094 289.09375 231.90625 C 288.457031 231.035156 288.191406 230.070312 287.964844 229.035156 C 287.761719 228.117188 287.738281 227.164062 287.707031 226.222656 C 287.636719 223.980469 287.601562 222 288.171875 219.832031 C 289.519531 214.722656 291.210938 209.730469 292.8125 204.703125 C 294.378906 199.785156 296.296875 194.796875 298.558594 190.152344 C 299.523438 188.171875 300.785156 186.367188 301.769531 184.398438 C 302.632812 182.65625 303.128906 180.964844 303.316406 179.128906 C 303.296875 179.085938 303.28125 179.035156 303.28125 178.96875 C 303.300781 173.554688 302.398438 168.125 302.730469 162.699219 C 302.898438 159.9375 303.171875 157.167969 303.035156 154.402344 C 302.898438 151.578125 302.261719 148.832031 301.628906 146.085938 C 300.441406 140.9375 298.648438 135.921875 297.21875 130.835938 C 296.929688 129.804688 296.667969 128.761719 296.421875 127.714844 C 296.191406 127.753906 295.941406 127.753906 295.703125 127.777344 C 295.246094 127.816406 294.664062 128.085938 294.214844 128.03125 C 293.28125 127.910156 292.980469 126.484375 292.945312 125.625 C 292.90625 124.769531 293.292969 120.816406 294.835938 120.941406 C 294.753906 120.773438 294.675781 120.648438 294.589844 120.554688 C 289.03125 117.742188 288.863281 131.574219 288.871094 134.585938 C 288.875 139.402344 289.472656 144.082031 290.566406 148.765625 C 290.585938 148.761719 290.601562 148.75 290.636719 148.757812 C 291.132812 148.628906 291.648438 148.582031 292.144531 148.457031 C 292.46875 148.460938 292.796875 148.488281 293.140625 148.578125 C 294.851562 149.023438 296.464844 150.058594 297.335938 151.621094 C 298.222656 153.210938 297.902344 155.375 297.164062 156.964844 C 295.8125 159.878906 294.308594 162.695312 293.640625 165.875 C 293.101562 168.429688 293.351562 171.132812 292.9375 173.726562 C 292.460938 176.726562 290.902344 179.484375 290.371094 182.507812 C 289.875 185.328125 288.851562 188.945312 290.175781 191.699219 C 290.34375 192.046875 289.742188 192.320312 289.5625 192.007812 C 289.539062 191.96875 289.519531 191.933594 289.492188 191.894531 C 289.464844 191.84375 289.460938 191.796875 289.460938 191.753906 C 288.820312 190.199219 288.878906 188.109375 288.976562 186.5 C 289.097656 184.472656 289.625 182.300781 290.117188 180.324219 C 290.738281 177.839844 292.035156 175.539062 292.34375 172.984375 C 292.601562 170.882812 292.507812 168.726562 292.8125 166.644531 C 293.136719 164.425781 293.960938 162.316406 294.867188 160.289062 C 295.804688 158.207031 297.238281 156.046875 297.144531 153.695312 C 297.074219 152.085938 295.914062 150.617188 294.601562 149.777344 C 290.484375 147.125 287.472656 152.097656 285.890625 155.195312 C 284.835938 157.261719 284.582031 159.496094 283.871094 161.675781 C 283.074219 164.128906 282.238281 166.566406 281.226562 168.941406 C 280.261719 171.207031 279.015625 173.308594 277.984375 175.539062 C 277.089844 177.480469 276.121094 179.304688 274.882812 181.058594 C 272.011719 185.121094 268.949219 189.101562 266.554688 193.480469 C 265.546875 195.324219 264.765625 197.140625 264.097656 199.132812 C 263.203125 201.816406 262.105469 204.457031 261.574219 207.25 C 261.097656 209.75 260.425781 212.207031 260.234375 214.753906 C 260.011719 217.675781 259.609375 220.558594 259.355469 223.476562 C 259.25 224.730469 259.375 225.949219 259.371094 227.203125 C 259.367188 228.664062 259.761719 229.871094 260.003906 231.292969 C 260.242188 232.6875 260.359375 234.058594 260.707031 235.429688 C 261.707031 239.410156 263.96875 242.445312 265.824219 246.015625 C 266.53125 247.375 267.140625 248.539062 268.117188 249.738281 C 269.035156 250.859375 270.082031 251.863281 271.007812 252.972656 C 273.140625 255.558594 274.511719 258.421875 276.207031 261.28125 C 277.777344 263.917969 279.503906 266.453125 281.148438 269.042969 C 281.355469 269.371094 280.722656 269.652344 280.535156 269.351562 C 278.886719 266.761719 277.160156 264.226562 275.59375 261.589844 C 273.894531 258.730469 272.535156 255.867188 270.394531 253.285156 C 269.46875 252.171875 268.417969 251.171875 267.503906 250.046875 C 266.523438 248.839844 265.90625 247.695312 265.210938 246.328125 C 264.273438 244.480469 263.101562 242.761719 262.058594 240.976562 C 261.117188 239.363281 260.582031 237.710938 260.113281 235.90625 C 259.777344 234.617188 259.589844 233.355469 259.410156 232.039062 C 259.253906 230.902344 258.78125 229.8125 258.671875 228.6875 C 258.414062 226.1875 258.621094 223.570312 258.964844 221.085938 C 259.351562 218.269531 259.332031 215.410156 259.792969 212.613281 C 260.640625 207.421875 262.269531 202.605469 263.890625 197.621094 C 265.429688 192.894531 268.835938 188.824219 271.46875 184.695312 C 272.125 183.660156 272.851562 182.671875 273.570312 181.679688 C 273.492188 181.683594 273.421875 181.644531 273.378906 181.519531 C 272.28125 178.316406 271.664062 175.054688 270.808594 171.789062 C 269.839844 168.105469 269.003906 164.417969 268.304688 160.667969 C 267.316406 155.394531 267.609375 149.507812 269.875 144.558594 C 269.917969 144.460938 269.976562 144.410156 270.035156 144.386719 C 269.050781 141.601562 268.304688 138.773438 268.132812 135.730469 C 268.03125 133.878906 267.828125 131.796875 268.523438 130.039062 C 269.035156 128.75 269.773438 126.46875 270.921875 125.597656 C 271.003906 125.53125 271.105469 125.515625 271.195312 125.523438 C 270.78125 123.152344 271.398438 120.558594 272.53125 118.46875 C 273.457031 116.757812 277.523438 113.238281 279.734375 119.25 C 281.285156 123.453125 281.386719 125.011719 282.488281 128.367188 C 283.679688 131.988281 284.496094 135.746094 286.125 139.199219 C 286.925781 140.890625 287.707031 142.582031 288.488281 144.285156 C 288.859375 145.101562 289.183594 145.941406 289.53125 146.769531 C 288.472656 141.355469 288.132812 135.964844 288.449219 130.398438 C 288.621094 127.308594 289.464844 117.6875 294.511719 119.769531 C 294.511719 119.730469 294.507812 119.699219 294.507812 119.660156 C 294.695312 119.726562 294.84375 119.851562 294.988281 120 C 295.003906 120.003906 295.015625 120.007812 295.027344 120.019531 C 295.089844 120.050781 295.125 120.109375 295.144531 120.167969 C 295.71875 120.933594 295.90625 122.273438 296.070312 123.046875 C 296.320312 124.242188 296.515625 125.449219 296.789062 126.644531 C 298.089844 132.28125 299.914062 137.8125 301.503906 143.371094 C 302.308594 146.203125 303.019531 149.101562 303.4375 152.015625 C 303.847656 154.902344 303.578125 157.785156 303.417969 160.671875 C 303.09375 166.574219 303.820312 172.398438 303.851562 178.285156 C 303.90625 178.289062 303.960938 178.296875 304.011719 178.304688 C 303.988281 179.039062 303.941406 179.773438 303.847656 180.515625 C 303.578125 182.648438 302.460938 184.621094 301.363281 186.453125 C 299.925781 188.855469 298.714844 191.304688 297.65625 193.886719 C 295.261719 199.734375 293.335938 205.683594 291.253906 211.640625 C 290.222656 214.601562 289.398438 217.683594 288.636719 220.722656 C 288.269531 222.195312 288.410156 223.5625 288.410156 225.058594 C 288.410156 225.945312 288.566406 226.859375 288.667969 227.738281 C 288.773438 228.667969 288.773438 229.636719 289.117188 230.515625 C 289.445312 231.351562 290.121094 232.015625 290.695312 232.691406 C 291.683594 233.875 292.585938 235.105469 293.679688 236.195312 C 295.40625 237.917969 296.710938 239.90625 298.269531 241.773438 C 299.921875 243.742188 301.382812 245.746094 302.898438 247.8125 C 303.777344 249.003906 304.445312 250.324219 305.285156 251.539062 C 306.109375 252.726562 307.238281 253.496094 308.183594 254.546875 C 308.429688 254.804688 307.796875 255.09375 307.558594 254.832031 Z M 278.597656 173.125 C 278.453125 173.09375 278.351562 172.984375 278.425781 172.8125 C 278.46875 172.710938 277.371094 170.722656 277.320312 170.621094 C 276.933594 169.8125 276.566406 169.027344 276.242188 168.191406 C 275.375 165.976562 274.820312 163.734375 274.195312 161.453125 C 273.585938 159.230469 270.679688 146.128906 270.285156 145.050781 C 270.28125 145.054688 270.277344 145.058594 270.273438 145.070312 C 267.953125 150.292969 268.054688 156.253906 269.121094 161.742188 C 269.746094 164.953125 270.460938 168.113281 271.296875 171.277344 C 272.164062 174.539062 272.769531 177.792969 273.851562 181.003906 C 273.984375 180.851562 274.117188 180.699219 274.25 180.542969 C 274.257812 180.605469 274.269531 180.667969 274.277344 180.730469 C 274.890625 179.878906 275.492188 179.019531 276.035156 178.113281 C 276.964844 176.542969 277.800781 174.828125 278.597656 173.125 Z M 282.867188 162.65625 C 282.8125 162.621094 282.769531 162.582031 282.746094 162.515625 C 282.308594 161.171875 281.550781 159.941406 281.054688 158.621094 C 280.460938 157.023438 279.988281 155.320312 279.585938 153.667969 C 278.773438 150.328125 277.921875 147.019531 277.363281 143.628906 C 277.097656 142.007812 272.03125 129.035156 271.296875 126.042969 C 270.605469 126.652344 270.15625 128.0625 269.777344 128.847656 C 269.25 129.9375 268.886719 130.875 268.800781 132.089844 C 268.644531 134.300781 268.765625 136.628906 269.164062 138.804688 C 269.5625 140.976562 270.183594 143.148438 270.984375 145.210938 C 271.707031 147.082031 273.539062 155.175781 273.914062 157.304688 C 274.300781 159.476562 274.941406 161.605469 275.484375 163.746094 C 276.058594 166.015625 276.929688 168.195312 277.929688 170.300781 C 278.222656 170.914062 278.820312 171.695312 278.964844 172.332031 C 279.25 171.71875 279.53125 171.113281 279.808594 170.511719 C 281.003906 167.972656 281.996094 165.328125 282.867188 162.65625 Z M 289.828125 149.136719 C 289.511719 148.859375 289.503906 148.507812 289.34375 148.0625 C 288.796875 146.574219 288.109375 145.117188 287.460938 143.671875 C 286.367188 141.246094 285.003906 138.863281 284.191406 136.316406 C 283.265625 133.429688 282.546875 130.472656 281.507812 127.617188 C 280.5625 125.035156 279.324219 116.601562 276.402344 116.585938 C 274.703125 116.578125 273.550781 117.957031 273.039062 118.898438 C 271.519531 121.714844 271.398438 124.507812 272.476562 127.503906 C 273.445312 130.1875 277.585938 140.652344 278.046875 143.453125 C 278.582031 146.738281 279.445312 149.921875 280.195312 153.167969 C 280.582031 154.847656 281.070312 156.539062 281.644531 158.167969 C 282.070312 159.367188 282.695312 160.488281 283.171875 161.675781 C 283.808594 159.4375 284.171875 157.15625 285.246094 155.058594 C 286.226562 153.144531 287.757812 150.402344 289.828125 149.136719 Z M 295.429688 122.84375 C 295.453125 122.953125 295.488281 123.0625 295.523438 123.167969 C 295.484375 122.960938 295.441406 122.746094 295.394531 122.539062 C 295.402344 122.65625 295.410156 122.761719 295.429688 122.84375 Z M 295.429688 122.84375 "/></g></g></svg>