<svg xmlns="http://www.w3.org/2000/svg" xmlns:xlink="http://www.w3.org/1999/xlink" width="500" zoomAndPan="magnify" viewBox="0 0 375 374.999991" height="500" preserveAspectRatio="xMidYMid meet" version="1.2"><defs><clipPath id="1b839bc14f"><path d="M 102 125.851562 L 265 125.851562 L 265 236.101562 L 102 236.101562 Z M 102 125.851562 "/></clipPath></defs><g id="3f84e3649c"><g clip-rule="nonzero" clip-path="url(#1b839bc14f)"><path style=" stroke:none;fill-rule:nonzero;fill:#ffffff;fill-opacity:1;" d="M 195.382812 198.261719 C 191.753906 199.996094 187.75 200.90625 183.734375 200.953125 C 179.949219 200.992188 176.558594 200.007812 173.003906 198.816406 C 171.820312 198.421875 170.710938 197.789062 169.601562 197.234375 C 167.984375 196.429688 166.6875 195.160156 165.238281 194.117188 C 162.070312 191.835938 159.355469 188.269531 157.964844 184.640625 C 157.230469 182.730469 156.300781 180.765625 156.011719 178.75 C 155.621094 176.046875 155.125 173.492188 155.332031 170.742188 C 155.511719 168.308594 156.101562 165.914062 156.925781 163.621094 C 156.964844 163.515625 157.117188 163.527344 157.144531 163.636719 C 157.371094 164.621094 158.34375 166.285156 158.597656 166.808594 C 159.246094 168.15625 160 169.453125 160.855469 170.679688 C 162.019531 172.347656 163.148438 173.808594 164.492188 175.183594 C 165.074219 175.777344 165.691406 176.351562 166.371094 176.921875 C 166.921875 177.382812 167.46875 177.84375 168.042969 178.273438 C 169.917969 179.691406 172.058594 180.726562 174.300781 181.429688 C 175.429688 181.789062 176.589844 181.953125 177.734375 182.25 C 180.371094 182.929688 183.011719 182.792969 185.753906 182.601562 C 188.925781 182.386719 192.074219 181.714844 195.03125 180.542969 C 198.078125 179.34375 200.28125 177.527344 202.714844 175.394531 C 203.417969 174.78125 204.152344 174.113281 204.691406 173.375 C 205.667969 172.042969 206.839844 170.902344 207.660156 169.453125 C 208.046875 168.765625 208.46875 168.082031 208.816406 167.367188 C 209.007812 166.980469 209.75 165.78125 209.964844 165.050781 C 209.992188 164.960938 210.121094 164.960938 210.148438 165.050781 C 210.457031 166.03125 210.761719 167.023438 210.851562 168.046875 C 211.246094 172.453125 210.746094 179.507812 208.453125 184.890625 C 207.957031 186.058594 205.488281 190.351562 204.605469 191.226562 C 203.542969 192.277344 202.4375 193.460938 201.285156 194.433594 C 199.492188 195.957031 197.503906 197.25 195.382812 198.261719 Z M 209.242188 163.25 C 209.359375 163.386719 209.585938 163.472656 209.734375 163.226562 C 209.875 162.992188 209.664062 162.667969 209.402344 162.667969 C 209.066406 162.671875 209.070312 163.050781 209.242188 163.25 Z M 208.042969 160.195312 C 207.996094 160.261719 207.976562 160.359375 207.996094 160.441406 C 208.027344 160.5625 208.125 160.703125 208.257812 160.722656 C 208.578125 160.757812 208.726562 160.339844 208.480469 160.144531 C 208.347656 160.035156 208.140625 160.050781 208.042969 160.195312 Z M 206.628906 157.761719 C 206.589844 157.835938 206.582031 157.933594 206.605469 158.011719 C 206.644531 158.128906 206.757812 158.261719 206.898438 158.261719 C 207.222656 158.261719 207.320312 157.839844 207.058594 157.667969 C 206.914062 157.574219 206.714844 157.609375 206.628906 157.761719 Z M 204.96875 155.492188 C 204.9375 155.566406 204.941406 155.667969 204.976562 155.742188 C 205.03125 155.851562 205.152344 155.976562 205.292969 155.964844 C 205.609375 155.933594 205.675781 155.496094 205.386719 155.355469 C 205.234375 155.273438 205.042969 155.332031 204.96875 155.492188 Z M 203.09375 153.398438 C 203.066406 153.476562 203.078125 153.578125 203.121094 153.648438 C 203.183594 153.753906 203.320312 153.863281 203.460938 153.832031 C 203.777344 153.769531 203.789062 153.335938 203.496094 153.21875 C 203.335938 153.15625 203.148438 153.226562 203.09375 153.398438 Z M 200.996094 151.523438 C 200.980469 151.605469 201 151.707031 201.046875 151.769531 C 201.121094 151.871094 201.265625 151.964844 201.402344 151.921875 C 201.710938 151.828125 201.675781 151.398438 201.378906 151.304688 C 201.210938 151.257812 201.03125 151.347656 200.996094 151.523438 Z M 198.742188 149.84375 C 198.730469 149.925781 198.765625 150.023438 198.820312 150.085938 C 198.902344 150.179688 199.054688 150.257812 199.1875 150.203125 C 199.484375 150.074219 199.410156 149.648438 199.101562 149.59375 C 198.929688 149.558594 198.761719 149.667969 198.742188 149.84375 Z M 196.804688 148.710938 C 197.089844 148.554688 196.972656 148.140625 196.660156 148.109375 C 196.492188 148.097656 196.332031 148.222656 196.328125 148.398438 C 196.328125 148.480469 196.371094 148.574219 196.429688 148.628906 C 196.523438 148.71875 196.683594 148.78125 196.804688 148.710938 Z M 193.78125 147.210938 C 193.789062 147.292969 193.839844 147.382812 193.90625 147.433594 C 194.007812 147.507812 194.171875 147.550781 194.289062 147.472656 C 194.554688 147.292969 194.394531 146.886719 194.082031 146.894531 C 193.910156 146.894531 193.765625 147.035156 193.78125 147.210938 Z M 191.273438 146.492188 C 191.382812 146.558594 191.550781 146.589844 191.65625 146.496094 C 191.90625 146.289062 191.703125 145.902344 191.394531 145.9375 C 191.226562 145.957031 191.097656 146.109375 191.132812 146.285156 C 191.144531 146.367188 191.203125 146.453125 191.273438 146.492188 Z M 188.558594 145.824219 C 188.671875 145.878906 188.847656 145.894531 188.941406 145.792969 C 189.167969 145.5625 188.929688 145.195312 188.625 145.257812 C 188.460938 145.296875 188.34375 145.460938 188.398438 145.632812 C 188.417969 145.710938 188.484375 145.789062 188.558594 145.824219 Z M 185.789062 145.433594 C 185.90625 145.472656 186.078125 145.472656 186.167969 145.363281 C 186.363281 145.109375 186.09375 144.769531 185.796875 144.863281 C 185.632812 144.914062 185.539062 145.089844 185.609375 145.257812 C 185.640625 145.332031 185.714844 145.402344 185.789062 145.433594 Z M 182.796875 145.164062 C 182.835938 145.234375 182.914062 145.296875 182.996094 145.316406 C 183.117188 145.351562 183.289062 145.332031 183.363281 145.214844 C 183.535156 144.945312 183.230469 144.628906 182.945312 144.753906 C 182.789062 144.816406 182.710938 145.003906 182.796875 145.164062 Z M 180.207031 145.488281 C 180.332031 145.507812 180.5 145.472656 180.5625 145.347656 C 180.707031 145.0625 180.371094 144.777344 180.097656 144.929688 C 179.949219 145.007812 179.890625 145.203125 179.988281 145.351562 C 180.035156 145.417969 180.125 145.472656 180.207031 145.488281 Z M 177.445312 145.933594 C 177.570312 145.941406 177.734375 145.890625 177.785156 145.761719 C 177.902344 145.460938 177.539062 145.214844 177.28125 145.386719 C 177.140625 145.480469 177.101562 145.679688 177.214844 145.816406 C 177.269531 145.878906 177.363281 145.925781 177.445312 145.933594 Z M 174.742188 146.652344 C 174.867188 146.648438 175.027344 146.582031 175.0625 146.449219 C 175.148438 146.144531 174.761719 145.929688 174.523438 146.125 C 174.394531 146.238281 174.382812 146.453125 174.507812 146.570312 C 174.5625 146.625 174.660156 146.652344 174.742188 146.652344 Z M 171.859375 147.144531 C 171.746094 147.28125 171.75 147.488281 171.886719 147.589844 C 171.949219 147.640625 172.050781 147.660156 172.128906 147.644531 C 172.25 147.628906 172.402344 147.546875 172.425781 147.410156 C 172.480469 147.101562 172.074219 146.917969 171.859375 147.144531 Z M 169.308594 148.4375 C 169.210938 148.582031 169.234375 148.785156 169.382812 148.878906 C 169.453125 148.921875 169.550781 148.933594 169.628906 148.90625 C 169.742188 148.859375 169.890625 148.777344 169.898438 148.636719 C 169.921875 148.324219 169.492188 148.175781 169.308594 148.4375 Z M 167.269531 150.410156 C 167.378906 150.355469 167.511719 150.246094 167.507812 150.113281 C 167.503906 149.804688 167.050781 149.6875 166.90625 149.976562 C 166.820312 150.132812 166.867188 150.332031 167.027344 150.410156 C 167.097656 150.445312 167.199219 150.445312 167.269531 150.410156 Z M 164.671875 151.753906 C 164.601562 151.914062 164.667969 152.113281 164.832031 152.171875 C 164.910156 152.199219 165.007812 152.1875 165.078125 152.148438 C 165.179688 152.082031 165.300781 151.960938 165.28125 151.824219 C 165.246094 151.519531 164.785156 151.449219 164.671875 151.753906 Z M 162.617188 153.738281 C 162.5625 153.902344 162.644531 154.085938 162.816406 154.132812 C 162.894531 154.152344 162.996094 154.136719 163.0625 154.089844 C 163.164062 154.019531 163.273438 153.886719 163.242188 153.75 C 163.171875 153.445312 162.714844 153.4375 162.617188 153.738281 Z M 160.78125 155.921875 C 160.742188 156.089844 160.84375 156.265625 161.019531 156.292969 C 161.097656 156.308594 161.195312 156.277344 161.257812 156.230469 C 161.351562 156.148438 161.441406 156.003906 161.394531 155.871094 C 161.289062 155.5625 160.847656 155.613281 160.78125 155.921875 Z M 159.171875 158.277344 C 159.148438 158.449219 159.265625 158.613281 159.441406 158.625 C 159.523438 158.632812 159.617188 158.59375 159.675781 158.535156 C 159.765625 158.449219 159.835938 158.289062 159.777344 158.164062 C 159.640625 157.871094 159.207031 157.964844 159.171875 158.277344 Z M 157.808594 160.785156 C 157.804688 160.957031 157.9375 161.109375 158.113281 161.105469 C 158.195312 161.101562 158.285156 161.054688 158.339844 160.992188 C 158.417969 160.894531 158.46875 160.726562 158.398438 160.609375 C 158.230469 160.335938 157.816406 160.472656 157.808594 160.785156 Z M 207.738281 152.597656 C 207.816406 152.691406 207.96875 152.691406 208.085938 152.597656 L 212 149.398438 C 213.296875 148.320312 214.628906 147.285156 215.882812 146.15625 C 215.984375 146.066406 215.996094 145.898438 215.902344 145.777344 C 215.808594 145.648438 215.632812 145.621094 215.519531 145.710938 C 214.1875 146.746094 212.933594 147.875 211.648438 148.960938 L 207.808594 152.253906 C 207.695312 152.351562 207.664062 152.503906 207.738281 152.597656 Z M 215.558594 154.15625 C 215.65625 154.085938 215.695312 153.960938 215.640625 153.851562 C 215.582031 153.738281 215.441406 153.695312 215.320312 153.757812 C 214.542969 154.164062 213.792969 154.617188 213.039062 155.0625 C 212.292969 155.523438 211.550781 155.980469 210.820312 156.464844 C 210.71875 156.53125 210.671875 156.652344 210.71875 156.738281 C 210.765625 156.835938 210.902344 156.863281 211.023438 156.800781 C 211.800781 156.390625 212.558594 155.960938 213.320312 155.523438 C 214.074219 155.082031 214.828125 154.636719 215.558594 154.15625 Z M 213.277344 161.472656 L 216.019531 160.425781 C 216.929688 160.074219 217.859375 159.765625 218.757812 159.375 C 218.886719 159.316406 218.957031 159.167969 218.90625 159.035156 C 218.855469 158.894531 218.695312 158.816406 218.546875 158.867188 C 217.621094 159.1875 216.730469 159.589844 215.820312 159.953125 L 213.09375 161.046875 C 212.949219 161.105469 212.871094 161.242188 212.917969 161.359375 C 212.976562 161.480469 213.128906 161.53125 213.277344 161.472656 Z M 217.269531 153.175781 C 217.871094 152.886719 218.445312 152.542969 219.019531 152.203125 L 220.746094 151.1875 C 221.898438 150.511719 223.046875 149.832031 224.1875 149.136719 C 224.308594 149.0625 224.339844 148.886719 224.25 148.738281 C 224.164062 148.585938 223.988281 148.519531 223.863281 148.589844 C 222.707031 149.261719 221.558594 149.941406 220.410156 150.628906 L 218.691406 151.652344 C 218.117188 151.996094 217.539062 152.335938 216.996094 152.726562 C 216.890625 152.800781 216.851562 152.941406 216.910156 153.058594 C 216.980469 153.1875 217.136719 153.238281 217.269531 153.175781 Z M 219.257812 163.632812 L 214.371094 164.925781 C 214.226562 164.964844 214.136719 165.085938 214.167969 165.203125 C 214.195312 165.320312 214.335938 165.382812 214.476562 165.351562 L 219.398438 164.179688 C 221.035156 163.777344 222.683594 163.421875 224.300781 162.957031 C 224.433594 162.917969 224.515625 162.773438 224.484375 162.625 C 224.453125 162.46875 224.304688 162.363281 224.164062 162.398438 C 222.511719 162.746094 220.890625 163.21875 219.257812 163.632812 Z M 215.300781 170.429688 C 216.175781 170.402344 217.050781 170.339844 217.925781 170.277344 C 218.796875 170.207031 219.667969 170.136719 220.535156 170.015625 C 220.65625 170 220.742188 169.898438 220.738281 169.78125 C 220.738281 169.652344 220.621094 169.550781 220.488281 169.558594 C 219.613281 169.585938 218.742188 169.664062 217.867188 169.742188 C 217 169.832031 216.128906 169.917969 215.261719 170.039062 C 215.140625 170.054688 215.050781 170.140625 215.054688 170.246094 C 215.054688 170.351562 215.167969 170.433594 215.300781 170.429688 Z M 215.285156 175.628906 L 218.214844 175.871094 C 219.1875 175.949219 220.160156 176.074219 221.140625 176.109375 C 221.28125 176.109375 221.410156 176.011719 221.429688 175.871094 C 221.453125 175.722656 221.34375 175.582031 221.191406 175.566406 C 220.21875 175.453125 219.238281 175.433594 218.261719 175.367188 L 215.332031 175.171875 C 215.175781 175.164062 215.039062 175.257812 215.03125 175.378906 C 215.015625 175.503906 215.132812 175.617188 215.285156 175.628906 Z M 230.429688 168.613281 C 229.097656 168.710938 227.765625 168.828125 226.4375 168.945312 L 224.4375 169.125 C 223.773438 169.183594 223.105469 169.238281 222.449219 169.351562 C 222.320312 169.375 222.226562 169.484375 222.230469 169.617188 C 222.234375 169.757812 222.355469 169.875 222.5 169.875 C 223.171875 169.871094 223.835938 169.8125 224.5 169.757812 L 226.496094 169.59375 C 227.828125 169.484375 229.160156 169.371094 230.488281 169.242188 C 230.628906 169.230469 230.730469 169.082031 230.714844 168.910156 C 230.703125 168.734375 230.574219 168.601562 230.429688 168.613281 Z M 224.910156 181.519531 C 224.945312 181.363281 224.859375 181.207031 224.714844 181.171875 C 223.074219 180.773438 221.410156 180.5 219.757812 180.171875 L 214.792969 179.222656 C 214.652344 179.195312 214.515625 179.269531 214.492188 179.382812 C 214.46875 179.5 214.570312 179.621094 214.710938 179.652344 L 219.65625 180.722656 C 221.304688 181.066406 222.945312 181.460938 224.609375 181.738281 C 224.742188 181.757812 224.875 181.664062 224.910156 181.519531 Z M 218.3125 186.039062 C 217.511719 185.683594 216.691406 185.375 215.871094 185.070312 C 215.050781 184.773438 214.226562 184.476562 213.394531 184.207031 C 213.277344 184.171875 213.152344 184.207031 213.109375 184.296875 C 213.058594 184.394531 213.121094 184.519531 213.246094 184.574219 C 214.046875 184.925781 214.859375 185.25 215.671875 185.570312 C 216.492188 185.886719 217.308594 186.199219 218.144531 186.46875 C 218.257812 186.503906 218.386719 186.453125 218.4375 186.347656 C 218.492188 186.230469 218.4375 186.09375 218.3125 186.039062 Z M 210.859375 188.898438 C 210.792969 189.007812 210.851562 189.160156 210.984375 189.242188 L 213.515625 190.730469 C 214.359375 191.226562 215.179688 191.761719 216.046875 192.21875 C 216.171875 192.285156 216.332031 192.246094 216.410156 192.128906 C 216.496094 192 216.457031 191.828125 216.324219 191.746094 C 215.496094 191.222656 214.621094 190.777344 213.773438 190.289062 L 211.222656 188.839844 C 211.085938 188.765625 210.921875 188.792969 210.859375 188.898438 Z M 227.683594 189.496094 C 226.4375 189.007812 225.1875 188.535156 223.9375 188.070312 L 222.0625 187.363281 C 221.433594 187.128906 220.8125 186.890625 220.167969 186.707031 C 220.042969 186.671875 219.910156 186.730469 219.851562 186.847656 C 219.785156 186.976562 219.839844 187.132812 219.96875 187.195312 C 220.574219 187.484375 221.199219 187.71875 221.824219 187.957031 L 223.695312 188.671875 C 224.941406 189.148438 226.1875 189.628906 227.445312 190.085938 C 227.578125 190.132812 227.738281 190.046875 227.804688 189.886719 C 227.871094 189.726562 227.816406 189.550781 227.683594 189.496094 Z M 213.035156 195.269531 L 208.980469 192.253906 C 208.863281 192.167969 208.710938 192.171875 208.644531 192.269531 C 208.574219 192.367188 208.601562 192.515625 208.71875 192.605469 L 212.703125 195.71875 C 214.035156 196.746094 215.339844 197.816406 216.714844 198.792969 C 216.828125 198.871094 217 198.851562 217.089844 198.730469 C 217.191406 198.601562 217.175781 198.425781 217.058594 198.332031 C 215.753906 197.261719 214.382812 196.289062 213.035156 195.269531 Z M 207.398438 198 C 206.789062 197.371094 206.175781 196.75 205.539062 196.148438 C 205.449219 196.066406 205.324219 196.050781 205.242188 196.113281 C 205.15625 196.179688 205.15625 196.316406 205.246094 196.417969 C 205.8125 197.082031 206.410156 197.726562 207.003906 198.371094 C 207.601562 199.007812 208.203125 199.644531 208.839844 200.246094 C 208.929688 200.332031 209.066406 200.339844 209.15625 200.265625 C 209.257812 200.1875 209.265625 200.035156 209.179688 199.933594 C 208.609375 199.261719 208.003906 198.632812 207.398438 198 Z M 203.242188 201.808594 L 201.566406 199.398438 C 201.480469 199.273438 201.320312 199.222656 201.214844 199.292969 C 201.113281 199.359375 201.09375 199.523438 201.183594 199.652344 L 202.820312 202.089844 C 203.367188 202.902344 203.875 203.742188 204.460938 204.527344 C 204.542969 204.640625 204.703125 204.675781 204.828125 204.605469 C 204.957031 204.527344 204.996094 204.359375 204.914062 204.226562 C 204.394531 203.390625 203.800781 202.613281 203.242188 201.808594 Z M 213.363281 204.199219 L 211.980469 202.75 C 211.519531 202.265625 211.058594 201.78125 210.5625 201.335938 C 210.46875 201.253906 210.324219 201.25 210.21875 201.328125 C 210.105469 201.414062 210.085938 201.582031 210.175781 201.695312 C 210.59375 202.21875 211.054688 202.699219 211.511719 203.1875 L 212.890625 204.640625 C 213.804688 205.613281 214.726562 206.582031 215.65625 207.539062 C 215.753906 207.640625 215.9375 207.632812 216.0625 207.519531 C 216.195312 207.402344 216.21875 207.214844 216.117188 207.109375 C 215.210938 206.128906 214.289062 205.164062 213.363281 204.199219 Z M 200.425781 205.972656 L 198.074219 201.496094 C 198.007812 201.367188 197.867188 201.308594 197.761719 201.363281 C 197.65625 201.417969 197.625 201.570312 197.691406 201.703125 L 199.933594 206.238281 C 200.691406 207.742188 201.402344 209.273438 202.222656 210.746094 C 202.289062 210.867188 202.445312 210.910156 202.582031 210.847656 C 202.726562 210.773438 202.792969 210.609375 202.730469 210.476562 C 202.015625 208.945312 201.195312 207.472656 200.425781 205.972656 Z M 194.171875 205.984375 C 193.890625 205.152344 193.613281 204.324219 193.304688 203.503906 C 193.261719 203.390625 193.15625 203.316406 193.054688 203.339844 C 192.949219 203.359375 192.890625 203.488281 192.925781 203.617188 C 193.148438 204.464844 193.402344 205.304688 193.65625 206.136719 C 193.917969 206.972656 194.179688 207.808594 194.492188 208.628906 C 194.535156 208.742188 194.652344 208.808594 194.769531 208.78125 C 194.894531 208.75 194.96875 208.625 194.933594 208.496094 C 194.714844 207.652344 194.445312 206.816406 194.171875 205.984375 Z M 188.3125 204.695312 C 188.289062 204.542969 188.167969 204.433594 188.042969 204.453125 C 187.921875 204.472656 187.835938 204.609375 187.855469 204.765625 L 188.269531 207.671875 C 188.40625 208.636719 188.5 209.617188 188.683594 210.578125 C 188.710938 210.714844 188.839844 210.816406 188.980469 210.804688 C 189.132812 210.789062 189.238281 210.652344 189.222656 210.496094 C 189.117188 209.523438 188.921875 208.5625 188.769531 207.597656 Z M 196.847656 214.164062 L 196.230469 212.257812 C 196.027344 211.621094 195.824219 210.984375 195.566406 210.363281 C 195.519531 210.246094 195.390625 210.175781 195.261719 210.199219 C 195.121094 210.234375 195.03125 210.371094 195.066406 210.511719 C 195.214844 211.164062 195.417969 211.800781 195.621094 212.4375 L 196.222656 214.347656 C 196.625 215.621094 197.03125 216.894531 197.453125 218.164062 C 197.496094 218.296875 197.664062 218.367188 197.828125 218.320312 C 197.996094 218.269531 198.101562 218.117188 198.058594 217.976562 C 197.667969 216.703125 197.257812 215.433594 196.847656 214.164062 Z M 184.242188 205.082031 C 184.238281 204.9375 184.140625 204.816406 184.019531 204.816406 C 183.898438 204.816406 183.800781 204.9375 183.804688 205.082031 L 183.859375 210.136719 C 183.890625 211.824219 183.867188 213.507812 183.964844 215.195312 C 183.972656 215.332031 184.09375 215.445312 184.246094 215.453125 C 184.40625 215.453125 184.539062 215.339844 184.539062 215.191406 C 184.5625 213.503906 184.460938 211.820312 184.417969 210.136719 Z M 178.910156 204.554688 C 178.800781 204.535156 178.695312 204.621094 178.671875 204.753906 C 178.503906 205.613281 178.371094 206.480469 178.238281 207.347656 C 178.117188 208.210938 177.992188 209.078125 177.917969 209.949219 C 177.90625 210.070312 177.984375 210.179688 178.101562 210.203125 C 178.226562 210.230469 178.351562 210.144531 178.371094 210.011719 C 178.539062 209.152344 178.65625 208.285156 178.773438 207.417969 C 178.878906 206.550781 178.988281 205.679688 179.0625 204.804688 C 179.074219 204.6875 179.007812 204.574219 178.910156 204.554688 Z M 173.910156 203.398438 C 173.789062 203.363281 173.652344 203.457031 173.605469 203.605469 L 172.71875 206.402344 C 172.425781 207.335938 172.085938 208.257812 171.839844 209.203125 C 171.804688 209.34375 171.875 209.484375 172.007812 209.53125 C 172.148438 209.578125 172.308594 209.503906 172.363281 209.355469 C 172.6875 208.429688 172.921875 207.480469 173.207031 206.542969 L 174.046875 203.730469 C 174.09375 203.585938 174.03125 203.4375 173.910156 203.398438 Z M 177.925781 211.699219 C 177.785156 211.667969 177.644531 211.753906 177.613281 211.898438 C 177.464844 212.550781 177.375 213.214844 177.28125 213.875 L 177.003906 215.859375 C 176.8125 217.183594 176.628906 218.503906 176.460938 219.832031 C 176.445312 219.972656 176.5625 220.105469 176.734375 220.132812 C 176.90625 220.15625 177.0625 220.0625 177.085938 219.921875 C 177.285156 218.597656 177.464844 217.277344 177.644531 215.953125 L 177.914062 213.96875 C 178.003906 213.304688 178.097656 212.644531 178.136719 211.976562 C 178.144531 211.84375 178.058594 211.726562 177.925781 211.699219 Z M 170.140625 201.984375 C 170.03125 201.933594 169.894531 202 169.832031 202.132812 L 167.683594 206.710938 C 166.984375 208.246094 166.230469 209.753906 165.585938 211.3125 C 165.535156 211.4375 165.597656 211.589844 165.734375 211.660156 C 165.875 211.734375 166.046875 211.683594 166.113281 211.550781 C 166.863281 210.042969 167.507812 208.480469 168.199219 206.945312 L 170.230469 202.320312 C 170.285156 202.183594 170.246094 202.03125 170.140625 201.984375 Z M 165.660156 199.539062 C 165.574219 199.472656 165.441406 199.507812 165.359375 199.617188 C 164.835938 200.320312 164.339844 201.039062 163.84375 201.761719 C 163.351562 202.484375 162.867188 203.210938 162.417969 203.964844 C 162.355469 204.070312 162.378906 204.203125 162.472656 204.269531 C 162.578125 204.347656 162.722656 204.324219 162.804688 204.214844 C 163.328125 203.511719 163.8125 202.78125 164.292969 202.050781 C 164.769531 201.316406 165.242188 200.582031 165.691406 199.828125 C 165.753906 199.722656 165.742188 199.597656 165.660156 199.539062 Z M 157.28125 201.011719 C 157.386719 201.117188 157.566406 201.113281 157.675781 201.003906 C 158.371094 200.3125 158.996094 199.5625 159.660156 198.839844 L 161.640625 196.675781 C 161.746094 196.5625 161.753906 196.398438 161.660156 196.3125 C 161.566406 196.230469 161.402344 196.253906 161.292969 196.367188 L 159.28125 198.503906 C 158.613281 199.21875 157.90625 199.898438 157.269531 200.644531 C 157.175781 200.75 157.179688 200.910156 157.28125 201.011719 Z M 161.296875 205.585938 C 160.882812 206.113281 160.511719 206.667969 160.136719 207.222656 L 159.019531 208.886719 C 158.273438 209.992188 157.53125 211.101562 156.800781 212.222656 C 156.722656 212.339844 156.777344 212.511719 156.917969 212.609375 C 157.066406 212.707031 157.25 212.691406 157.332031 212.570312 C 158.085938 211.46875 158.824219 210.355469 159.5625 209.242188 L 160.671875 207.574219 C 161.039062 207.019531 161.410156 206.460938 161.734375 205.875 C 161.796875 205.765625 161.769531 205.617188 161.667969 205.539062 C 161.554688 205.449219 161.386719 205.472656 161.296875 205.585938 Z M 158.863281 193.386719 C 158.785156 193.292969 158.632812 193.292969 158.515625 193.386719 L 154.601562 196.585938 C 153.304688 197.664062 151.972656 198.699219 150.71875 199.828125 C 150.617188 199.917969 150.605469 200.085938 150.695312 200.207031 C 150.792969 200.335938 150.964844 200.363281 151.082031 200.273438 C 152.414062 199.238281 153.667969 198.109375 154.953125 197.023438 L 158.792969 193.730469 C 158.90625 193.632812 158.9375 193.480469 158.863281 193.386719 Z M 151.042969 191.832031 C 150.945312 191.902344 150.90625 192.027344 150.960938 192.132812 C 151.019531 192.246094 151.160156 192.289062 151.28125 192.226562 C 152.058594 191.824219 152.808594 191.371094 153.5625 190.921875 C 154.308594 190.464844 155.050781 190.007812 155.78125 189.523438 C 155.882812 189.457031 155.929688 189.335938 155.882812 189.246094 C 155.835938 189.148438 155.699219 189.125 155.578125 189.1875 C 154.800781 189.59375 154.042969 190.027344 153.28125 190.464844 C 152.527344 190.902344 151.773438 191.34375 151.042969 191.832031 Z M 153.324219 184.511719 L 150.582031 185.5625 C 149.671875 185.910156 148.742188 186.21875 147.84375 186.613281 C 147.710938 186.671875 147.644531 186.816406 147.691406 186.953125 C 147.746094 187.09375 147.90625 187.167969 148.054688 187.121094 C 148.980469 186.796875 149.871094 186.394531 150.78125 186.03125 L 153.507812 184.941406 C 153.652344 184.882812 153.730469 184.742188 153.683594 184.625 C 153.625 184.507812 153.46875 184.457031 153.324219 184.511719 Z M 149.332031 192.808594 C 148.730469 193.101562 148.15625 193.441406 147.582031 193.785156 L 145.855469 194.800781 C 144.703125 195.476562 143.550781 196.15625 142.414062 196.851562 C 142.292969 196.925781 142.261719 197.101562 142.351562 197.25 C 142.4375 197.402344 142.613281 197.464844 142.738281 197.394531 C 143.894531 196.730469 145.042969 196.042969 146.191406 195.359375 L 147.910156 194.332031 C 148.484375 193.992188 149.058594 193.652344 149.605469 193.261719 C 149.710938 193.1875 149.75 193.046875 149.691406 192.929688 C 149.621094 192.800781 149.464844 192.746094 149.332031 192.808594 Z M 147.34375 182.347656 L 152.230469 181.058594 C 152.371094 181.019531 152.464844 180.898438 152.433594 180.78125 C 152.40625 180.664062 152.265625 180.597656 152.121094 180.632812 L 147.203125 181.804688 C 145.566406 182.207031 143.917969 182.5625 142.300781 183.027344 C 142.164062 183.066406 142.085938 183.210938 142.117188 183.359375 C 142.148438 183.515625 142.296875 183.621094 142.4375 183.585938 C 144.089844 183.234375 145.710938 182.769531 147.34375 182.347656 Z M 151.300781 175.554688 C 150.425781 175.585938 149.550781 175.648438 148.675781 175.707031 C 147.804688 175.78125 146.933594 175.851562 146.066406 175.972656 C 145.945312 175.988281 145.859375 176.089844 145.863281 176.207031 C 145.863281 176.335938 145.980469 176.4375 146.113281 176.429688 C 146.988281 176.398438 147.859375 176.320312 148.734375 176.246094 C 149.601562 176.15625 150.472656 176.070312 151.339844 175.949219 C 151.460938 175.933594 151.550781 175.84375 151.546875 175.742188 C 151.542969 175.636719 151.433594 175.550781 151.300781 175.554688 Z M 151.3125 170.355469 L 148.386719 170.117188 C 147.414062 170.039062 146.441406 169.910156 145.460938 169.878906 C 145.320312 169.875 145.191406 169.976562 145.171875 170.117188 C 145.148438 170.265625 145.257812 170.40625 145.410156 170.421875 C 146.382812 170.535156 147.363281 170.554688 148.339844 170.621094 L 151.269531 170.8125 C 151.425781 170.824219 151.5625 170.730469 151.570312 170.605469 C 151.582031 170.480469 151.46875 170.371094 151.3125 170.355469 Z M 144.152344 176.632812 C 144.28125 176.609375 144.375 176.5 144.371094 176.371094 C 144.367188 176.226562 144.246094 176.109375 144.101562 176.109375 C 143.429688 176.113281 142.765625 176.171875 142.101562 176.226562 L 140.105469 176.394531 C 138.773438 176.503906 137.441406 176.613281 136.113281 176.746094 C 135.972656 176.757812 135.871094 176.902344 135.886719 177.074219 C 135.902344 177.25 136.03125 177.382812 136.175781 177.375 C 137.503906 177.277344 138.835938 177.160156 140.167969 177.039062 L 142.164062 176.859375 C 142.828125 176.804688 143.492188 176.746094 144.152344 176.632812 Z M 141.691406 164.46875 C 141.65625 164.625 141.742188 164.78125 141.886719 164.816406 C 143.527344 165.210938 145.1875 165.488281 146.84375 165.816406 L 151.808594 166.765625 C 151.949219 166.789062 152.085938 166.71875 152.109375 166.601562 C 152.132812 166.484375 152.03125 166.367188 151.890625 166.332031 L 146.945312 165.265625 C 145.296875 164.921875 143.65625 164.527344 141.992188 164.246094 C 141.859375 164.226562 141.726562 164.320312 141.691406 164.46875 Z M 148.289062 159.949219 C 149.089844 160.300781 149.910156 160.609375 150.730469 160.914062 C 151.550781 161.214844 152.375 161.511719 153.207031 161.78125 C 153.324219 161.816406 153.449219 161.78125 153.492188 161.6875 C 153.542969 161.589844 153.480469 161.46875 153.355469 161.414062 C 152.554688 161.0625 151.742188 160.738281 150.929688 160.414062 C 150.109375 160.101562 149.292969 159.789062 148.457031 159.519531 C 148.34375 159.484375 148.214844 159.53125 148.164062 159.640625 C 148.109375 159.757812 148.164062 159.894531 148.289062 159.949219 Z M 155.742188 157.085938 C 155.808594 156.980469 155.75 156.828125 155.617188 156.746094 L 153.085938 155.253906 C 152.242188 154.761719 151.421875 154.226562 150.554688 153.769531 C 150.425781 153.703125 150.269531 153.738281 150.191406 153.859375 C 150.105469 153.984375 150.144531 154.15625 150.277344 154.242188 C 151.105469 154.765625 151.980469 155.210938 152.828125 155.695312 L 155.378906 157.144531 C 155.515625 157.21875 155.679688 157.195312 155.742188 157.085938 Z M 138.917969 156.488281 C 140.164062 156.980469 141.414062 157.449219 142.664062 157.917969 L 144.539062 158.625 C 145.167969 158.855469 145.789062 159.097656 146.433594 159.277344 C 146.554688 159.316406 146.691406 159.257812 146.75 159.140625 C 146.816406 159.007812 146.761719 158.855469 146.632812 158.792969 C 146.027344 158.503906 145.402344 158.269531 144.777344 158.027344 L 142.90625 157.3125 C 141.660156 156.835938 140.414062 156.359375 139.15625 155.902344 C 139.023438 155.851562 138.863281 155.941406 138.796875 156.101562 C 138.730469 156.257812 138.785156 156.433594 138.917969 156.488281 Z M 153.566406 150.714844 L 157.621094 153.734375 C 157.738281 153.820312 157.890625 153.8125 157.957031 153.714844 C 158.027344 153.617188 158 153.472656 157.878906 153.382812 L 153.898438 150.265625 C 152.566406 149.242188 151.261719 148.167969 149.886719 147.195312 C 149.773438 147.117188 149.601562 147.136719 149.511719 147.257812 C 149.410156 147.382812 149.425781 147.5625 149.539062 147.65625 C 150.847656 148.726562 152.21875 149.699219 153.566406 150.714844 Z M 159.203125 147.984375 C 159.8125 148.609375 160.425781 149.234375 161.0625 149.835938 C 161.152344 149.917969 161.277344 149.933594 161.359375 149.871094 C 161.441406 149.804688 161.441406 149.667969 161.355469 149.566406 C 160.789062 148.898438 160.191406 148.257812 159.597656 147.613281 C 158.996094 146.976562 158.398438 146.339844 157.761719 145.738281 C 157.671875 145.652344 157.535156 145.644531 157.445312 145.71875 C 157.34375 145.796875 157.335938 145.949219 157.421875 146.046875 C 157.992188 146.722656 158.597656 147.355469 159.203125 147.984375 Z M 163.359375 144.179688 L 165.035156 146.589844 C 165.121094 146.714844 165.28125 146.761719 165.386719 146.695312 C 165.488281 146.625 165.507812 146.464844 165.417969 146.335938 L 163.78125 143.894531 C 163.234375 143.082031 162.726562 142.246094 162.140625 141.460938 C 162.058594 141.347656 161.898438 141.3125 161.773438 141.382812 C 161.644531 141.460938 161.605469 141.628906 161.6875 141.761719 C 162.207031 142.59375 162.800781 143.371094 163.359375 144.179688 Z M 153.238281 141.789062 L 154.621094 143.238281 C 155.082031 143.71875 155.542969 144.203125 156.039062 144.648438 C 156.132812 144.734375 156.277344 144.738281 156.382812 144.660156 C 156.496094 144.570312 156.515625 144.40625 156.425781 144.292969 C 156.007812 143.769531 155.546875 143.289062 155.085938 142.800781 L 153.710938 141.347656 C 152.796875 140.375 151.875 139.40625 150.945312 138.445312 C 150.847656 138.34375 150.664062 138.355469 150.539062 138.46875 C 150.40625 138.585938 150.382812 138.769531 150.484375 138.878906 C 151.390625 139.855469 152.3125 140.824219 153.238281 141.789062 Z M 166.175781 140.011719 L 168.527344 144.488281 C 168.59375 144.617188 168.734375 144.675781 168.835938 144.621094 C 168.945312 144.566406 168.976562 144.410156 168.910156 144.277344 L 166.667969 139.746094 C 165.910156 138.242188 165.199219 136.710938 164.378906 135.238281 C 164.3125 135.117188 164.15625 135.070312 164.019531 135.136719 C 163.875 135.207031 163.808594 135.375 163.871094 135.507812 C 164.585938 137.039062 165.40625 138.515625 166.175781 140.011719 Z M 172.429688 140 C 172.707031 140.832031 172.988281 141.660156 173.296875 142.484375 C 173.339844 142.597656 173.445312 142.671875 173.546875 142.648438 C 173.652344 142.625 173.710938 142.5 173.675781 142.371094 C 173.453125 141.523438 173.199219 140.683594 172.945312 139.847656 C 172.683594 139.015625 172.417969 138.179688 172.109375 137.359375 C 172.066406 137.246094 171.949219 137.175781 171.832031 137.207031 C 171.707031 137.234375 171.628906 137.363281 171.667969 137.492188 C 171.886719 138.335938 172.15625 139.167969 172.429688 140 Z M 178.289062 141.292969 C 178.3125 141.445312 178.433594 141.554688 178.558594 141.535156 C 178.679688 141.515625 178.765625 141.375 178.746094 141.222656 L 178.332031 138.316406 C 178.195312 137.347656 178.101562 136.371094 177.917969 135.410156 C 177.890625 135.269531 177.761719 135.167969 177.621094 135.183594 C 177.46875 135.199219 177.363281 135.335938 177.378906 135.492188 C 177.484375 136.464844 177.679688 137.421875 177.832031 138.390625 Z M 169.753906 131.820312 L 170.371094 133.726562 C 170.574219 134.363281 170.777344 135 171.03125 135.621094 C 171.082031 135.738281 171.210938 135.808594 171.339844 135.785156 C 171.480469 135.75 171.570312 135.609375 171.535156 135.472656 C 171.386719 134.820312 171.183594 134.183594 170.980469 133.546875 L 170.378906 131.636719 C 169.972656 130.363281 169.570312 129.089844 169.148438 127.820312 C 169.105469 127.6875 168.9375 127.617188 168.773438 127.664062 C 168.605469 127.714844 168.5 127.867188 168.542969 128.003906 C 168.933594 129.28125 169.34375 130.550781 169.753906 131.820312 Z M 182.355469 140.902344 C 182.363281 141.046875 182.460938 141.167969 182.582031 141.167969 C 182.703125 141.167969 182.800781 141.046875 182.796875 140.902344 L 182.742188 135.84375 C 182.710938 134.160156 182.734375 132.472656 182.636719 130.789062 C 182.625 130.652344 182.507812 130.539062 182.355469 130.53125 C 182.195312 130.527344 182.0625 130.644531 182.0625 130.792969 C 182.039062 132.480469 182.140625 134.164062 182.183594 135.847656 Z M 187.691406 141.429688 C 187.800781 141.453125 187.90625 141.367188 187.929688 141.234375 C 188.09375 140.371094 188.230469 139.507812 188.363281 138.640625 C 188.484375 137.773438 188.609375 136.90625 188.683594 136.035156 C 188.691406 135.917969 188.617188 135.804688 188.5 135.785156 C 188.375 135.757812 188.25 135.84375 188.230469 135.976562 C 188.0625 136.835938 187.945312 137.703125 187.828125 138.570312 C 187.722656 139.4375 187.613281 140.308594 187.539062 141.179688 C 187.527344 141.296875 187.59375 141.40625 187.691406 141.429688 Z M 192.691406 142.582031 C 192.8125 142.621094 192.949219 142.523438 192.996094 142.378906 L 193.882812 139.578125 C 194.175781 138.648438 194.515625 137.726562 194.761719 136.78125 C 194.796875 136.640625 194.726562 136.496094 194.59375 136.453125 C 194.449219 136.402344 194.292969 136.480469 194.238281 136.628906 C 193.914062 137.554688 193.679688 138.5 193.394531 139.441406 L 192.554688 142.253906 C 192.507812 142.402344 192.570312 142.550781 192.691406 142.582031 Z M 188.671875 134.289062 C 188.816406 134.320312 188.957031 134.230469 188.988281 134.089844 C 189.136719 133.433594 189.226562 132.773438 189.320312 132.109375 L 189.597656 130.125 C 189.789062 128.804688 189.972656 127.484375 190.140625 126.15625 C 190.15625 126.015625 190.039062 125.882812 189.867188 125.855469 C 189.695312 125.828125 189.539062 125.925781 189.515625 126.066406 C 189.316406 127.386719 189.136719 128.710938 188.957031 130.035156 L 188.683594 132.023438 C 188.59375 132.683594 188.5 133.34375 188.460938 134.011719 C 188.457031 134.144531 188.542969 134.261719 188.671875 134.289062 Z M 196.460938 144.003906 C 196.570312 144.054688 196.707031 143.988281 196.769531 143.851562 L 198.917969 139.273438 C 199.617188 137.742188 200.371094 136.234375 201.015625 134.675781 C 201.066406 134.550781 201.003906 134.398438 200.867188 134.324219 C 200.726562 134.253906 200.554688 134.300781 200.488281 134.4375 C 199.738281 135.945312 199.09375 137.503906 198.402344 139.039062 L 196.371094 143.667969 C 196.316406 143.804688 196.355469 143.953125 196.460938 144.003906 Z M 200.941406 146.449219 C 201.027344 146.511719 201.160156 146.480469 201.242188 146.371094 C 201.765625 145.664062 202.261719 144.949219 202.757812 144.226562 C 203.25 143.503906 203.734375 142.773438 204.183594 142.023438 C 204.246094 141.917969 204.222656 141.785156 204.128906 141.714844 C 204.023438 141.640625 203.878906 141.664062 203.796875 141.773438 C 203.269531 142.472656 202.789062 143.203125 202.308594 143.933594 C 201.832031 144.667969 201.359375 145.40625 200.910156 146.160156 C 200.847656 146.261719 200.863281 146.386719 200.941406 146.449219 Z M 209.335938 145.34375 C 209.425781 145.238281 209.425781 145.074219 209.324219 144.972656 C 209.21875 144.867188 209.039062 144.871094 208.929688 144.980469 C 208.234375 145.671875 207.605469 146.421875 206.945312 147.144531 L 204.964844 149.308594 C 204.859375 149.421875 204.847656 149.585938 204.945312 149.667969 C 205.039062 149.753906 205.203125 149.730469 205.3125 149.617188 L 207.324219 147.480469 C 207.992188 146.769531 208.699219 146.085938 209.335938 145.34375 Z M 205.304688 140.402344 C 205.71875 139.875 206.089844 139.320312 206.464844 138.765625 L 207.582031 137.101562 C 208.328125 135.996094 209.070312 134.882812 209.796875 133.761719 C 209.875 133.648438 209.824219 133.472656 209.683594 133.378906 C 209.535156 133.28125 209.351562 133.296875 209.269531 133.414062 C 208.515625 134.515625 207.777344 135.628906 207.039062 136.746094 L 205.929688 138.414062 C 205.5625 138.96875 205.191406 139.523438 204.867188 140.113281 C 204.804688 140.222656 204.832031 140.367188 204.933594 140.445312 C 205.046875 140.535156 205.214844 140.515625 205.304688 140.402344 Z M 191.726562 172.351562 C 191.207031 171.816406 190.664062 171.304688 190.125 170.792969 C 189.871094 170.554688 189.484375 170.9375 189.742188 171.179688 C 190.316406 171.71875 190.890625 172.265625 191.441406 172.835938 C 190.527344 172.816406 189.617188 172.789062 188.71875 172.789062 C 188.367188 172.789062 188.367188 173.332031 188.71875 173.332031 C 189.574219 173.332031 190.433594 173.355469 191.292969 173.375 C 190.792969 173.925781 190.292969 174.476562 189.777344 175.011719 C 189.535156 175.265625 189.921875 175.648438 190.160156 175.398438 C 190.710938 174.828125 191.238281 174.242188 191.773438 173.660156 C 191.808594 174.59375 191.84375 175.527344 191.84375 176.457031 C 191.84375 176.804688 192.386719 176.804688 192.386719 176.457031 C 192.386719 175.574219 192.351562 174.691406 192.320312 173.804688 C 192.8125 174.394531 193.292969 175.066406 193.980469 175.4375 C 194.289062 175.605469 194.5625 175.136719 194.257812 174.96875 C 193.609375 174.617188 193.15625 173.96875 192.6875 173.398438 C 193.574219 173.414062 194.457031 173.414062 195.335938 173.367188 C 195.683594 173.347656 195.683594 172.804688 195.335938 172.824219 C 194.402344 172.875 193.457031 172.875 192.511719 172.855469 C 193.105469 172.210938 193.710938 171.570312 194.347656 170.96875 C 194.601562 170.726562 194.21875 170.339844 193.964844 170.582031 C 193.378906 171.140625 192.824219 171.726562 192.273438 172.316406 C 192.242188 171.195312 192.234375 170.066406 192.320312 168.949219 C 192.347656 168.601562 191.804688 168.601562 191.777344 168.949219 C 191.683594 170.078125 191.695312 171.214844 191.726562 172.351562 Z M 178.40625 174.277344 C 178.402344 174.277344 178.394531 174.273438 178.390625 174.273438 C 177.867188 174.246094 177.449219 174.792969 177.484375 175.300781 C 177.519531 175.855469 178.140625 176.265625 178.664062 176.207031 C 179.144531 176.152344 179.546875 175.75 179.546875 175.257812 C 179.542969 174.652344 178.984375 174.28125 178.421875 174.273438 C 178.414062 174.273438 178.410156 174.273438 178.40625 174.277344 Z M 196.839844 158.675781 C 197.160156 158.640625 197.433594 158.371094 197.429688 158.042969 C 197.425781 157.640625 197.050781 157.390625 196.679688 157.386719 C 196.675781 157.386719 196.667969 157.386719 196.664062 157.390625 C 196.664062 157.390625 196.660156 157.386719 196.65625 157.386719 C 196.304688 157.371094 196.027344 157.734375 196.046875 158.070312 C 196.074219 158.441406 196.492188 158.714844 196.839844 158.675781 Z M 180.363281 152.511719 C 180.605469 152.484375 180.804688 152.285156 180.804688 152.039062 C 180.800781 151.734375 180.523438 151.550781 180.242188 151.542969 C 180.238281 151.542969 180.238281 151.542969 180.234375 151.546875 C 180.230469 151.546875 180.230469 151.546875 180.226562 151.542969 C 179.964844 151.53125 179.757812 151.804688 179.773438 152.058594 C 179.789062 152.332031 180.101562 152.539062 180.363281 152.511719 Z M 190.597656 165.023438 C 190.597656 165.023438 190.597656 165.023438 190.59375 165.019531 C 190.328125 165.007812 190.121094 165.28125 190.136719 165.535156 C 190.15625 165.808594 190.464844 166.015625 190.730469 165.988281 C 190.96875 165.960938 191.171875 165.761719 191.171875 165.515625 C 191.167969 165.210938 190.886719 165.027344 190.609375 165.019531 C 190.605469 165.019531 190.601562 165.023438 190.597656 165.023438 Z M 188.921875 154.375 C 188.695312 153.972656 188.609375 153.308594 188.558594 152.847656 C 188.546875 152.769531 188.546875 152.234375 188.421875 152.300781 C 188.382812 152.320312 188.394531 152.414062 188.390625 152.445312 C 188.378906 152.578125 188.363281 152.710938 188.351562 152.84375 C 188.300781 153.304688 188.210938 153.96875 187.988281 154.371094 C 187.597656 155.074219 186.863281 155.394531 186.148438 155.582031 C 186.066406 155.605469 186.015625 155.753906 186.128906 155.78125 C 186.554688 155.894531 186.992188 155.945312 187.359375 156.222656 C 187.722656 156.503906 187.925781 156.894531 188.054688 157.332031 C 188.269531 158.085938 188.28125 158.316406 188.34375 159.089844 C 188.347656 159.109375 188.347656 159.128906 188.347656 159.148438 C 188.347656 159.152344 188.347656 159.15625 188.347656 159.164062 C 188.347656 159.203125 188.378906 159.230469 188.414062 159.238281 C 188.417969 159.238281 188.421875 159.242188 188.421875 159.242188 C 188.433594 159.246094 188.441406 159.246094 188.453125 159.246094 C 188.460938 159.246094 188.472656 159.246094 188.480469 159.242188 C 188.484375 159.242188 188.488281 159.238281 188.492188 159.238281 C 188.527344 159.226562 188.558594 159.203125 188.558594 159.164062 C 188.558594 159.160156 188.558594 159.15625 188.558594 159.148438 C 188.5625 159.128906 188.5625 159.109375 188.5625 159.089844 C 188.628906 158.316406 188.632812 158.082031 188.851562 157.332031 C 188.980469 156.894531 189.183594 156.503906 189.546875 156.222656 C 189.910156 155.945312 190.347656 155.894531 190.777344 155.78125 C 190.886719 155.753906 190.839844 155.605469 190.753906 155.582031 C 190.046875 155.398438 189.3125 155.078125 188.921875 154.375 Z M 166.320312 160.1875 C 166.585938 160.257812 166.855469 160.289062 167.082031 160.460938 C 167.304688 160.632812 167.433594 160.878906 167.507812 161.148438 C 167.644531 161.609375 167.648438 161.757812 167.6875 162.234375 C 167.6875 162.246094 167.691406 162.261719 167.691406 162.269531 C 167.691406 162.273438 167.691406 162.273438 167.691406 162.277344 C 167.695312 162.300781 167.710938 162.320312 167.734375 162.324219 C 167.738281 162.324219 167.738281 162.328125 167.738281 162.328125 C 167.746094 162.328125 167.753906 162.332031 167.757812 162.332031 C 167.761719 162.332031 167.769531 162.332031 167.773438 162.328125 C 167.777344 162.328125 167.777344 162.328125 167.777344 162.324219 C 167.800781 162.320312 167.820312 162.300781 167.820312 162.277344 C 167.820312 162.273438 167.820312 162.273438 167.820312 162.269531 C 167.820312 162.257812 167.824219 162.246094 167.824219 162.234375 C 167.863281 161.757812 167.871094 161.609375 168.003906 161.148438 C 168.082031 160.878906 168.207031 160.636719 168.433594 160.460938 C 168.65625 160.289062 168.925781 160.261719 169.191406 160.1875 C 169.261719 160.171875 169.230469 160.082031 169.179688 160.066406 C 168.742188 159.949219 168.285156 159.75 168.046875 159.316406 C 167.90625 159.066406 167.855469 158.660156 167.820312 158.375 C 167.816406 158.328125 167.816406 157.996094 167.738281 158.035156 C 167.714844 158.046875 167.722656 158.105469 167.71875 158.125 C 167.710938 158.207031 167.703125 158.289062 167.691406 158.375 C 167.660156 158.660156 167.605469 159.070312 167.46875 159.316406 C 167.226562 159.75 166.773438 159.949219 166.335938 160.066406 C 166.28125 160.078125 166.257812 160.167969 166.320312 160.1875 Z M 179.777344 166.738281 C 180.746094 166.480469 181.746094 166.042969 182.28125 165.09375 C 182.585938 164.542969 182.703125 163.636719 182.773438 163.007812 C 182.792969 162.828125 182.808594 162.648438 182.828125 162.464844 C 182.832031 162.417969 182.820312 162.289062 182.867188 162.261719 C 183.042969 162.175781 183.042969 162.902344 183.054688 163.003906 C 183.125 163.632812 183.242188 164.539062 183.550781 165.089844 C 184.082031 166.042969 185.082031 166.480469 186.050781 166.734375 C 186.167969 166.765625 186.226562 166.964844 186.078125 167.003906 C 185.496094 167.15625 184.898438 167.226562 184.40625 167.605469 C 183.914062 167.984375 183.632812 168.523438 183.460938 169.113281 C 183.164062 170.136719 183.152344 170.457031 183.066406 171.507812 C 183.0625 171.535156 183.0625 171.566406 183.058594 171.589844 C 183.058594 171.597656 183.058594 171.601562 183.058594 171.605469 C 183.054688 171.660156 183.011719 171.699219 182.964844 171.714844 C 182.960938 171.714844 182.957031 171.71875 182.953125 171.71875 C 182.9375 171.71875 182.925781 171.722656 182.914062 171.722656 C 182.898438 171.722656 182.886719 171.71875 182.875 171.71875 C 182.871094 171.71875 182.867188 171.714844 182.859375 171.714844 C 182.8125 171.699219 182.769531 171.660156 182.765625 171.605469 C 182.765625 171.601562 182.765625 171.597656 182.765625 171.589844 C 182.761719 171.566406 182.761719 171.535156 182.761719 171.507812 C 182.671875 170.457031 182.664062 170.136719 182.363281 169.113281 C 182.191406 168.523438 181.914062 167.984375 181.417969 167.605469 C 180.921875 167.226562 180.332031 167.15625 179.746094 167.003906 C 179.597656 166.964844 179.660156 166.769531 179.777344 166.738281 Z M 180.34375 166.882812 C 181.257812 167.148438 182 167.488281 182.4375 168.484375 C 182.722656 169.121094 182.839844 169.8125 182.914062 170.507812 C 182.980469 169.8125 183.101562 169.121094 183.386719 168.484375 C 183.828125 167.488281 184.570312 167.148438 185.480469 166.882812 C 184.71875 166.6875 183.964844 166.171875 183.472656 165.503906 C 183.183594 165.109375 183.015625 164.367188 182.914062 163.886719 C 182.804688 164.367188 182.644531 165.109375 182.355469 165.503906 C 181.859375 166.171875 181.105469 166.6875 180.34375 166.882812 Z M 173.769531 157.566406 C 174.867188 157.480469 175.40625 157.488281 176.464844 157.476562 C 176.214844 157.726562 175.941406 157.949219 175.675781 158.195312 C 175.363281 158.476562 174.695312 159.222656 174.710938 159.277344 C 174.710938 159.285156 174.710938 159.296875 174.714844 159.304688 C 174.734375 159.398438 174.859375 159.417969 174.921875 159.359375 C 175.203125 159.101562 175.417969 158.785156 175.6875 158.515625 C 175.957031 158.25 176.257812 158.019531 176.535156 157.757812 C 176.570312 158.863281 176.617188 159.964844 176.648438 161.070312 C 176.652344 161.160156 176.753906 161.226562 176.832031 161.175781 C 176.910156 161.128906 176.894531 161.082031 176.890625 160.996094 C 176.886719 160.914062 176.886719 160.839844 176.882812 160.757812 C 176.875 160.597656 176.871094 160.4375 176.867188 160.277344 C 176.851562 159.855469 176.835938 159.433594 176.820312 159.007812 C 176.8125 158.796875 176.804688 158.585938 176.796875 158.375 C 176.792969 158.265625 176.792969 158.160156 176.789062 158.054688 C 176.785156 158 176.785156 157.945312 176.78125 157.890625 C 176.78125 157.867188 176.792969 157.765625 176.777344 157.75 C 177.273438 158.277344 177.792969 158.785156 178.253906 159.339844 C 178.355469 159.464844 178.527344 159.289062 178.429688 159.164062 C 177.9375 158.574219 177.378906 158.035156 176.855469 157.46875 C 177.792969 157.449219 178.71875 157.425781 179.65625 157.386719 C 179.816406 157.378906 179.816406 157.132812 179.65625 157.140625 C 178.785156 157.175781 177.914062 157.199219 177.046875 157.21875 C 177.546875 156.640625 178.011719 156.042969 178.625 155.574219 C 178.75 155.480469 178.628906 155.265625 178.503906 155.363281 C 177.828125 155.875 177.320312 156.535156 176.765625 157.164062 C 176.753906 156.683594 176.667969 154.175781 176.671875 153.972656 C 176.675781 153.8125 176.453125 153.75 176.433594 153.90625 C 176.394531 154.210938 176.5 156.488281 176.519531 157.101562 C 176.003906 156.542969 175.46875 156.019531 174.894531 155.523438 C 174.773438 155.425781 174.597656 155.597656 174.71875 155.699219 C 175.28125 156.179688 175.804688 156.695312 176.304688 157.234375 C 176.296875 157.234375 176.289062 157.234375 176.285156 157.234375 C 176.019531 157.234375 174.421875 157.261719 173.710938 157.332031 C 173.550781 157.34375 173.613281 157.582031 173.769531 157.566406 Z M 113.777344 156.878906 C 113.21875 156.136719 111.46875 156.605469 110.929688 157.128906 C 110.042969 157.988281 110.410156 159.140625 110.773438 160.125 C 110.949219 160.605469 111.1875 161.859375 111.675781 162.023438 C 112.0625 162.152344 112.664062 161.816406 113.027344 161.722656 C 113.507812 161.605469 114.007812 161.5625 114.472656 161.40625 C 115.75 160.980469 115.445312 159.175781 114.828125 158.277344 C 114.640625 158 114.117188 156.929688 113.777344 156.878906 Z M 135.277344 203.613281 C 135.507812 205.28125 135.648438 207.039062 135.476562 208.714844 C 135.398438 209.476562 135.082031 210.203125 134.980469 210.964844 C 134.859375 211.851562 134.730469 212.699219 134.507812 213.5625 C 134.191406 214.777344 133.832031 215.886719 133.203125 216.964844 C 132.5 218.167969 131.71875 219.316406 131.085938 220.554688 C 130.617188 221.476562 130.207031 222.242188 129.546875 223.054688 C 128.933594 223.808594 128.226562 224.480469 127.605469 225.226562 C 126.167969 226.960938 125.257812 228.878906 124.117188 230.800781 C 123.0625 232.574219 121.90625 234.273438 120.800781 236.011719 C 120.671875 236.214844 120.246094 236.023438 120.386719 235.804688 C 121.492188 234.066406 122.652344 232.363281 123.703125 230.59375 C 124.84375 228.675781 125.761719 226.757812 127.195312 225.019531 C 127.816406 224.269531 128.519531 223.597656 129.132812 222.847656 C 129.792969 222.039062 130.199219 221.261719 130.671875 220.347656 C 131.921875 217.949219 133.4375 215.910156 134.109375 213.242188 C 134.34375 212.320312 134.421875 211.398438 134.578125 210.464844 C 134.742188 209.515625 135.007812 208.699219 135.003906 207.71875 C 135.003906 206.882812 135.085938 206.058594 135.015625 205.21875 C 134.847656 203.261719 134.578125 201.324219 134.425781 199.363281 C 134.296875 197.65625 133.847656 196.003906 133.527344 194.328125 C 133.171875 192.453125 132.4375 190.679688 131.832031 188.878906 C 131.386719 187.542969 130.863281 186.320312 130.183594 185.082031 C 128.574219 182.148438 126.519531 179.472656 124.59375 176.746094 C 123.757812 175.570312 123.113281 174.34375 122.511719 173.042969 C 121.820312 171.546875 120.984375 170.132812 120.335938 168.613281 C 119.65625 167.019531 119.09375 165.382812 118.558594 163.734375 C 118.082031 162.273438 117.917969 160.773438 117.207031 159.386719 C 116.144531 157.308594 114.117188 153.96875 111.355469 155.75 C 110.476562 156.3125 109.699219 157.296875 109.652344 158.378906 C 109.585938 159.957031 110.550781 161.40625 111.179688 162.804688 C 111.789062 164.167969 112.339844 165.582031 112.558594 167.070312 C 112.761719 168.46875 112.703125 169.914062 112.875 171.328125 C 113.082031 173.046875 113.953125 174.585938 114.367188 176.253906 C 114.695312 177.578125 115.050781 179.035156 115.132812 180.398438 C 115.199219 181.480469 115.242188 182.882812 114.808594 183.925781 C 114.808594 183.953125 114.804688 183.984375 114.785156 184.019531 C 114.769531 184.042969 114.757812 184.070312 114.742188 184.097656 C 114.617188 184.304688 114.214844 184.121094 114.328125 183.890625 C 115.222656 182.042969 114.53125 179.613281 114.199219 177.71875 C 113.839844 175.6875 112.796875 173.835938 112.472656 171.824219 C 112.195312 170.082031 112.363281 168.269531 112.003906 166.554688 C 111.554688 164.421875 110.542969 162.527344 109.640625 160.574219 C 109.140625 159.507812 108.925781 158.054688 109.523438 156.988281 C 110.105469 155.9375 111.191406 155.242188 112.335938 154.945312 C 112.566406 154.886719 112.789062 154.867188 113.007812 154.863281 C 113.339844 154.945312 113.683594 154.980469 114.019531 155.0625 C 114.042969 155.0625 114.050781 155.066406 114.066406 155.070312 C 114.800781 151.925781 115.203125 148.789062 115.207031 145.550781 C 115.207031 143.53125 115.097656 134.25 111.367188 136.132812 C 111.308594 136.191406 111.253906 136.28125 111.199219 136.394531 C 112.234375 136.308594 112.496094 138.960938 112.46875 139.539062 C 112.445312 140.117188 112.242188 141.066406 111.617188 141.152344 C 111.316406 141.191406 110.925781 141.007812 110.621094 140.984375 C 110.457031 140.96875 110.292969 140.964844 110.136719 140.941406 C 109.972656 141.640625 109.792969 142.34375 109.601562 143.035156 C 108.640625 146.449219 107.4375 149.816406 106.640625 153.269531 C 106.214844 155.117188 105.789062 156.957031 105.695312 158.855469 C 105.605469 160.714844 105.789062 162.570312 105.902344 164.421875 C 106.125 168.0625 105.519531 171.707031 105.53125 175.34375 C 105.53125 175.390625 105.519531 175.421875 105.507812 175.453125 C 105.632812 176.683594 105.964844 177.824219 106.546875 178.988281 C 107.207031 180.308594 108.050781 181.519531 108.699219 182.851562 C 110.21875 185.96875 111.507812 189.316406 112.558594 192.617188 C 113.632812 195.996094 114.773438 199.34375 115.671875 202.773438 C 116.054688 204.226562 116.035156 205.558594 115.984375 207.0625 C 115.964844 207.691406 115.949219 208.328125 115.8125 208.949219 C 115.65625 209.644531 115.476562 210.292969 115.054688 210.875 C 114.703125 211.359375 114.253906 211.746094 113.878906 212.207031 C 112.652344 213.734375 111.28125 215.09375 110.101562 216.664062 C 109.503906 217.453125 108.851562 218.164062 108.214844 218.917969 C 107.539062 219.714844 107.042969 220.632812 106.417969 221.464844 C 105.832031 222.242188 105.363281 223.078125 104.835938 223.890625 C 104.199219 224.875 103.417969 225.417969 102.660156 226.265625 C 102.5 226.441406 102.074219 226.246094 102.246094 226.058594 C 102.878906 225.351562 103.640625 224.835938 104.191406 224.039062 C 104.753906 223.222656 105.207031 222.335938 105.792969 221.539062 C 106.8125 220.152344 107.796875 218.804688 108.902344 217.484375 C 109.949219 216.234375 110.824219 214.894531 111.984375 213.738281 C 112.71875 213.007812 113.324219 212.179688 113.988281 211.390625 C 114.371094 210.933594 114.820312 210.488281 115.046875 209.925781 C 115.28125 209.335938 115.277344 208.6875 115.347656 208.0625 C 115.417969 207.472656 115.519531 206.863281 115.519531 206.265625 C 115.519531 205.261719 115.613281 204.339844 115.367188 203.355469 C 114.859375 201.3125 114.300781 199.246094 113.609375 197.257812 C 112.21875 193.257812 110.925781 189.265625 109.3125 185.339844 C 108.601562 183.605469 107.789062 181.960938 106.828125 180.351562 C 106.089844 179.121094 105.339844 177.796875 105.15625 176.363281 C 105.09375 175.867188 105.0625 175.375 105.046875 174.878906 C 105.082031 174.878906 105.117188 174.871094 105.152344 174.867188 C 105.175781 170.917969 105.664062 167.003906 105.445312 163.046875 C 105.339844 161.109375 105.15625 159.171875 105.433594 157.238281 C 105.710938 155.277344 106.191406 153.332031 106.730469 151.433594 C 107.796875 147.703125 109.023438 143.988281 109.894531 140.207031 C 110.082031 139.40625 110.210938 138.597656 110.378906 137.789062 C 110.488281 137.269531 110.613281 136.371094 111 135.859375 C 111.011719 135.816406 111.035156 135.78125 111.078125 135.757812 C 111.085938 135.753906 111.09375 135.75 111.101562 135.746094 C 111.199219 135.648438 111.300781 135.5625 111.429688 135.515625 C 111.429688 135.539062 111.425781 135.566406 111.425781 135.589844 C 114.8125 134.191406 115.378906 140.648438 115.492188 142.726562 C 115.703125 146.460938 115.476562 150.078125 114.765625 153.714844 C 115 153.15625 115.21875 152.597656 115.46875 152.046875 C 115.992188 150.90625 116.515625 149.769531 117.054688 148.632812 C 118.148438 146.316406 118.695312 143.792969 119.496094 141.363281 C 120.234375 139.113281 120.304688 138.0625 121.34375 135.242188 C 122.828125 131.207031 125.558594 133.570312 126.179688 134.71875 C 126.9375 136.121094 127.355469 137.863281 127.074219 139.453125 C 127.136719 139.445312 127.203125 139.457031 127.261719 139.5 C 128.027344 140.082031 128.523438 141.621094 128.867188 142.484375 C 129.335938 143.664062 129.203125 145.0625 129.128906 146.304688 C 129.015625 148.347656 128.511719 150.246094 127.855469 152.113281 C 127.894531 152.132812 127.933594 152.164062 127.960938 152.230469 C 129.480469 155.550781 129.679688 159.507812 129.015625 163.042969 C 128.546875 165.558594 127.988281 168.035156 127.335938 170.507812 C 126.761719 172.703125 126.347656 174.890625 125.609375 177.039062 C 125.582031 177.121094 125.53125 177.148438 125.480469 177.148438 C 125.964844 177.8125 126.453125 178.476562 126.894531 179.171875 C 128.660156 181.945312 130.945312 184.675781 131.980469 187.847656 C 133.066406 191.191406 134.15625 194.425781 134.730469 197.910156 C 135.027344 199.804688 135.015625 201.722656 135.277344 203.613281 Z M 110.804688 137.679688 C 110.816406 137.625 110.824219 137.554688 110.832031 137.476562 C 110.796875 137.613281 110.773438 137.757812 110.746094 137.898438 C 110.765625 137.824219 110.789062 137.753906 110.804688 137.679688 Z M 119.035156 163.746094 C 119.347656 162.949219 119.769531 162.195312 120.058594 161.390625 C 120.441406 160.300781 120.769531 159.164062 121.03125 158.035156 C 121.535156 155.855469 122.113281 153.71875 122.472656 151.515625 C 122.78125 149.632812 125.5625 142.613281 126.210938 140.808594 C 126.933594 138.796875 126.855469 136.921875 125.835938 135.035156 C 125.492188 134.398438 124.71875 133.472656 123.578125 133.480469 C 121.617188 133.492188 120.785156 139.152344 120.152344 140.886719 C 119.453125 142.800781 118.96875 144.785156 118.347656 146.722656 C 117.804688 148.429688 116.886719 150.03125 116.152344 151.660156 C 115.714844 152.632812 115.257812 153.609375 114.890625 154.609375 C 114.78125 154.90625 114.773438 155.140625 114.566406 155.332031 C 115.957031 156.179688 116.980469 158.019531 117.640625 159.304688 C 118.363281 160.710938 118.605469 162.246094 119.035156 163.746094 Z M 121.851562 170.902344 C 121.949219 170.472656 122.351562 169.949219 122.546875 169.539062 C 123.21875 168.121094 123.800781 166.65625 124.191406 165.136719 C 124.558594 163.703125 124.984375 162.273438 125.242188 160.816406 C 125.496094 159.386719 126.726562 153.953125 127.210938 152.695312 C 127.746094 151.3125 128.164062 149.855469 128.433594 148.398438 C 128.699219 146.933594 128.78125 145.375 128.675781 143.890625 C 128.617188 143.074219 128.375 142.441406 128.019531 141.714844 C 127.765625 141.191406 127.464844 140.238281 127 139.828125 C 126.507812 141.839844 123.105469 150.546875 122.925781 151.632812 C 122.554688 153.90625 121.980469 156.128906 121.4375 158.375 C 121.167969 159.484375 120.847656 160.625 120.449219 161.699219 C 120.117188 162.585938 119.613281 163.410156 119.316406 164.3125 C 119.304688 164.359375 119.269531 164.386719 119.234375 164.40625 C 119.820312 166.199219 120.484375 167.976562 121.285156 169.6875 C 121.472656 170.082031 121.660156 170.492188 121.851562 170.902344 Z M 125.292969 176.710938 C 126.019531 174.5625 126.425781 172.375 127.007812 170.183594 C 127.570312 168.0625 128.050781 165.941406 128.46875 163.785156 C 129.183594 160.101562 129.25 156.101562 127.695312 152.59375 C 127.691406 152.589844 127.6875 152.585938 127.683594 152.578125 C 127.417969 153.304688 125.46875 162.097656 125.0625 163.589844 C 124.640625 165.121094 124.265625 166.628906 123.6875 168.113281 C 123.46875 168.671875 123.222656 169.199219 122.964844 169.742188 C 122.929688 169.8125 122.195312 171.148438 122.222656 171.214844 C 122.273438 171.332031 122.203125 171.402344 122.105469 171.425781 C 122.644531 172.566406 123.207031 173.71875 123.832031 174.765625 C 124.199219 175.375 124.601562 175.953125 125.011719 176.523438 C 125.015625 176.480469 125.027344 176.4375 125.03125 176.398438 C 125.113281 176.507812 125.199219 176.609375 125.292969 176.710938 Z M 252.316406 161.40625 C 252.78125 161.5625 253.28125 161.605469 253.761719 161.722656 C 254.128906 161.8125 254.726562 162.148438 255.113281 162.023438 C 255.601562 161.859375 255.84375 160.601562 256.015625 160.125 C 256.378906 159.140625 256.746094 157.988281 255.863281 157.128906 C 255.324219 156.605469 253.570312 156.136719 253.011719 156.878906 C 252.675781 156.929688 252.148438 157.996094 251.957031 158.277344 C 251.339844 159.175781 251.039062 160.984375 252.316406 161.40625 Z M 264.128906 226.277344 C 263.371094 225.429688 262.589844 224.886719 261.953125 223.902344 C 261.429688 223.085938 260.957031 222.25 260.371094 221.476562 C 259.746094 220.644531 259.25 219.726562 258.578125 218.929688 C 257.941406 218.175781 257.285156 217.464844 256.691406 216.671875 C 255.507812 215.105469 254.136719 213.742188 252.910156 212.21875 C 252.539062 211.753906 252.085938 211.367188 251.734375 210.886719 C 251.308594 210.300781 251.128906 209.65625 250.976562 208.960938 C 250.839844 208.34375 250.824219 207.703125 250.804688 207.074219 C 250.757812 205.566406 250.734375 204.238281 251.117188 202.78125 C 252.019531 199.355469 253.15625 196.003906 254.230469 192.628906 C 255.285156 189.324219 256.570312 185.976562 258.089844 182.859375 C 258.734375 181.53125 259.582031 180.320312 260.242188 179 C 260.824219 177.828125 261.15625 176.691406 261.28125 175.460938 C 261.269531 175.433594 261.257812 175.398438 261.257812 175.355469 C 261.273438 171.71875 260.664062 168.074219 260.890625 164.433594 C 261.003906 162.578125 261.183594 160.722656 261.09375 158.863281 C 261.003906 156.96875 260.574219 155.125 260.148438 153.28125 C 259.351562 149.824219 258.148438 146.457031 257.191406 143.042969 C 256.996094 142.351562 256.820312 141.652344 256.652344 140.949219 C 256.5 140.976562 256.332031 140.976562 256.171875 140.992188 C 255.863281 141.019531 255.476562 141.199219 255.171875 141.160156 C 254.546875 141.082031 254.34375 140.125 254.320312 139.546875 C 254.292969 138.972656 254.554688 136.320312 255.589844 136.402344 C 255.535156 136.289062 255.480469 136.207031 255.421875 136.144531 C 251.691406 134.257812 251.582031 143.542969 251.585938 145.5625 C 251.585938 148.796875 251.992188 151.9375 252.722656 155.082031 C 252.738281 155.078125 252.746094 155.070312 252.769531 155.074219 C 253.105469 154.988281 253.449219 154.957031 253.78125 154.871094 C 254 154.875 254.222656 154.894531 254.453125 154.953125 C 255.597656 155.253906 256.683594 155.945312 257.269531 156.996094 C 257.863281 158.066406 257.648438 159.515625 257.152344 160.585938 C 256.246094 162.539062 255.234375 164.429688 254.785156 166.5625 C 254.425781 168.277344 254.59375 170.09375 254.316406 171.835938 C 253.996094 173.847656 252.949219 175.699219 252.589844 177.726562 C 252.261719 179.621094 251.570312 182.050781 252.460938 183.898438 C 252.574219 184.132812 252.167969 184.3125 252.050781 184.105469 C 252.03125 184.082031 252.019531 184.054688 252.003906 184.027344 C 251.984375 183.996094 251.980469 183.964844 251.980469 183.933594 C 251.550781 182.890625 251.589844 181.488281 251.65625 180.40625 C 251.738281 179.046875 252.089844 177.589844 252.421875 176.265625 C 252.839844 174.59375 253.707031 173.050781 253.917969 171.335938 C 254.089844 169.925781 254.027344 168.480469 254.230469 167.078125 C 254.449219 165.59375 255 164.175781 255.613281 162.816406 C 256.238281 161.417969 257.203125 159.96875 257.136719 158.390625 C 257.09375 157.308594 256.3125 156.324219 255.433594 155.757812 C 252.667969 153.980469 250.644531 157.316406 249.585938 159.394531 C 248.875 160.78125 248.707031 162.28125 248.230469 163.746094 C 247.695312 165.390625 247.132812 167.027344 246.453125 168.621094 C 245.808594 170.140625 244.96875 171.554688 244.277344 173.050781 C 243.675781 174.355469 243.027344 175.578125 242.195312 176.757812 C 240.269531 179.480469 238.214844 182.15625 236.605469 185.09375 C 235.929688 186.332031 235.40625 187.550781 234.957031 188.886719 C 234.355469 190.6875 233.621094 192.460938 233.261719 194.335938 C 232.945312 196.015625 232.492188 197.664062 232.363281 199.375 C 232.214844 201.335938 231.945312 203.269531 231.773438 205.226562 C 231.703125 206.070312 231.789062 206.886719 231.785156 207.730469 C 231.78125 208.710938 232.046875 209.523438 232.210938 210.476562 C 232.367188 211.410156 232.445312 212.332031 232.679688 213.253906 C 233.351562 215.921875 234.871094 217.960938 236.117188 220.359375 C 236.589844 221.269531 237 222.050781 237.65625 222.855469 C 238.269531 223.609375 238.972656 224.28125 239.59375 225.027344 C 241.027344 226.761719 241.945312 228.683594 243.085938 230.605469 C 244.136719 232.375 245.296875 234.074219 246.402344 235.8125 C 246.542969 236.035156 246.117188 236.222656 245.988281 236.019531 C 244.886719 234.285156 243.726562 232.582031 242.671875 230.8125 C 241.535156 228.894531 240.621094 226.96875 239.183594 225.234375 C 238.5625 224.488281 237.855469 223.816406 237.242188 223.0625 C 236.585938 222.25 236.171875 221.484375 235.703125 220.566406 C 235.074219 219.324219 234.289062 218.171875 233.585938 216.972656 C 232.957031 215.894531 232.597656 214.78125 232.28125 213.570312 C 232.058594 212.707031 231.929688 211.859375 231.808594 210.976562 C 231.707031 210.214844 231.386719 209.484375 231.3125 208.726562 C 231.140625 207.046875 231.28125 205.289062 231.511719 203.625 C 231.773438 201.734375 231.757812 199.816406 232.066406 197.9375 C 232.636719 194.453125 233.730469 191.21875 234.816406 187.875 C 235.851562 184.699219 238.136719 181.96875 239.902344 179.195312 C 240.34375 178.5 240.832031 177.839844 241.316406 177.171875 C 241.265625 177.175781 241.214844 177.148438 241.1875 177.066406 C 240.449219 174.914062 240.035156 172.726562 239.460938 170.535156 C 238.8125 168.058594 238.25 165.585938 237.78125 163.070312 C 237.117188 159.527344 237.316406 155.578125 238.835938 152.253906 C 238.863281 152.191406 238.902344 152.15625 238.941406 152.140625 C 238.28125 150.269531 237.78125 148.375 237.664062 146.332031 C 237.597656 145.085938 237.460938 143.691406 237.929688 142.507812 C 238.269531 141.644531 238.765625 140.113281 239.535156 139.527344 C 239.589844 139.484375 239.660156 139.472656 239.722656 139.480469 C 239.441406 137.886719 239.859375 136.148438 240.617188 134.746094 C 241.238281 133.59375 243.96875 131.234375 245.453125 135.265625 C 246.492188 138.089844 246.5625 139.136719 247.300781 141.386719 C 248.101562 143.816406 248.648438 146.339844 249.742188 148.660156 C 250.277344 149.792969 250.804688 150.929688 251.328125 152.074219 C 251.578125 152.621094 251.796875 153.183594 252.03125 153.738281 C 251.316406 150.105469 251.089844 146.488281 251.300781 142.753906 C 251.417969 140.675781 251.984375 134.21875 255.371094 135.617188 C 255.371094 135.589844 255.367188 135.570312 255.367188 135.542969 C 255.496094 135.589844 255.59375 135.671875 255.691406 135.769531 C 255.703125 135.773438 255.710938 135.777344 255.71875 135.785156 C 255.761719 135.804688 255.785156 135.84375 255.796875 135.882812 C 256.183594 136.398438 256.304688 137.296875 256.417969 137.816406 C 256.585938 138.617188 256.714844 139.429688 256.902344 140.234375 C 257.773438 144.015625 259 147.726562 260.0625 151.460938 C 260.605469 153.359375 261.082031 155.304688 261.363281 157.261719 C 261.640625 159.199219 261.457031 161.132812 261.351562 163.074219 C 261.132812 167.035156 261.621094 170.945312 261.640625 174.894531 C 261.679688 174.898438 261.714844 174.902344 261.75 174.90625 C 261.734375 175.398438 261.699219 175.894531 261.640625 176.390625 C 261.457031 177.824219 260.707031 179.148438 259.96875 180.378906 C 259.003906 181.988281 258.191406 183.632812 257.480469 185.367188 C 255.875 189.292969 254.582031 193.285156 253.1875 197.285156 C 252.492188 199.273438 251.9375 201.339844 251.429688 203.378906 C 251.183594 204.367188 251.277344 205.285156 251.277344 206.289062 C 251.277344 206.882812 251.378906 207.5 251.449219 208.089844 C 251.519531 208.714844 251.519531 209.363281 251.75 209.953125 C 251.972656 210.515625 252.425781 210.960938 252.808594 211.414062 C 253.476562 212.207031 254.078125 213.035156 254.8125 213.765625 C 255.972656 214.921875 256.847656 216.257812 257.894531 217.511719 C 259 218.832031 259.984375 220.175781 261.003906 221.5625 C 261.589844 222.363281 262.039062 223.25 262.601562 224.0625 C 263.15625 224.863281 263.914062 225.378906 264.546875 226.082031 C 264.714844 226.257812 264.289062 226.449219 264.128906 226.277344 Z M 244.691406 171.429688 C 244.59375 171.410156 244.523438 171.335938 244.574219 171.21875 C 244.601562 171.152344 243.867188 169.816406 243.832031 169.75 C 243.574219 169.207031 243.328125 168.679688 243.109375 168.117188 C 242.527344 166.632812 242.152344 165.128906 241.734375 163.59375 C 241.324219 162.105469 239.375 153.308594 239.109375 152.585938 C 239.109375 152.589844 239.105469 152.59375 239.101562 152.597656 C 237.546875 156.105469 237.613281 160.105469 238.328125 163.789062 C 238.746094 165.945312 239.226562 168.066406 239.789062 170.191406 C 240.371094 172.378906 240.777344 174.566406 241.503906 176.71875 C 241.59375 176.617188 241.683594 176.515625 241.769531 176.410156 C 241.777344 176.453125 241.785156 176.496094 241.789062 176.535156 C 242.203125 175.964844 242.605469 175.386719 242.96875 174.78125 C 243.59375 173.722656 244.152344 172.574219 244.691406 171.429688 Z M 247.554688 164.402344 C 247.519531 164.382812 247.488281 164.355469 247.472656 164.308594 C 247.179688 163.40625 246.671875 162.582031 246.339844 161.695312 C 245.941406 160.625 245.621094 159.480469 245.351562 158.371094 C 244.808594 156.128906 244.234375 153.90625 243.863281 151.632812 C 243.683594 150.542969 240.285156 141.835938 239.789062 139.828125 C 239.324219 140.234375 239.023438 141.183594 238.769531 141.710938 C 238.414062 142.441406 238.171875 143.070312 238.113281 143.886719 C 238.011719 145.371094 238.089844 146.933594 238.359375 148.394531 C 238.625 149.851562 239.042969 151.308594 239.578125 152.691406 C 240.066406 153.949219 241.292969 159.382812 241.546875 160.8125 C 241.804688 162.269531 242.234375 163.699219 242.597656 165.132812 C 242.984375 166.65625 243.570312 168.121094 244.242188 169.535156 C 244.4375 169.949219 244.839844 170.46875 244.9375 170.898438 C 245.128906 170.488281 245.316406 170.082031 245.503906 169.679688 C 246.304688 167.972656 246.96875 166.195312 247.554688 164.402344 Z M 252.226562 155.332031 C 252.015625 155.140625 252.011719 154.90625 251.902344 154.609375 C 251.535156 153.609375 251.074219 152.632812 250.640625 151.660156 C 249.90625 150.035156 248.988281 148.433594 248.445312 146.722656 C 247.824219 144.785156 247.339844 142.800781 246.640625 140.886719 C 246.007812 139.152344 245.175781 133.492188 243.214844 133.480469 C 242.074219 133.472656 241.304688 134.398438 240.957031 135.035156 C 239.9375 136.921875 239.859375 138.796875 240.582031 140.808594 C 241.230469 142.609375 244.011719 149.632812 244.320312 151.515625 C 244.679688 153.71875 245.257812 155.855469 245.761719 158.035156 C 246.023438 159.164062 246.351562 160.300781 246.734375 161.390625 C 247.023438 162.195312 247.441406 162.949219 247.757812 163.746094 C 248.1875 162.246094 248.429688 160.710938 249.152344 159.304688 C 249.8125 158.019531 250.835938 156.179688 252.226562 155.332031 Z M 255.988281 137.679688 C 256.003906 137.753906 256.027344 137.824219 256.050781 137.898438 C 256.023438 137.757812 255.996094 137.613281 255.964844 137.476562 C 255.96875 137.554688 255.976562 137.625 255.988281 137.679688 Z M 255.988281 137.679688 "/></g></g></svg>